<svg width="185" height="38" viewBox="0 0 185 38" fill="none" xmlns="http://www.w3.org/2000/svg">
<path d="M5.50001 35.5C9.10001 32.7 9.66667 29.3333 9.50001 28C10.5 27 24 25.5 20 29.5C16 33.5 1.00001 39 5.50001 35.5Z" fill="white" stroke="#3D5EA3"/>
<rect x="0.5" y="0.5" width="184" height="29" rx="14.5" fill="white" stroke="#3D5EA3"/>
<path d="M11.8876 29.1732C11.8538 29.3353 11.7317 29.4981 11.6466 29.6375C11.5187 29.8468 11.5544 29.7926 11.593 29.5944C11.6304 29.402 11.6781 29.2032 11.6971 29.0081C11.6985 28.9937 11.7008 28.9505 11.7001 28.9649C11.6938 29.1107 11.6622 29.2484 11.6317 29.3905C11.5799 29.6313 11.7297 29.4839 11.8668 29.4202C11.8956 29.4069 12.2552 29.277 12.1748 29.2551C12.0546 29.2223 11.9639 29.2179 11.9204 29.081C11.871 28.926 11.8926 28.7565 11.846 28.6033C11.814 28.4983 11.7031 28.7886 11.6882 28.8161C11.6782 28.8345 11.5485 29.0067 11.6049 28.8905C11.6621 28.7725 11.6391 28.9525 11.7269 29.011C11.8515 29.0941 11.887 29.1019 11.7596 29.1851C11.667 29.2457 11.5908 29.2919 11.4858 29.3339" stroke="white" stroke-width="3" stroke-linecap="round"/>
<path d="M14.0837 29.2268C14.0388 29.4437 13.9014 29.653 13.7563 29.8161C13.7418 29.8324 13.4921 30.105 13.4735 30.0274C13.4293 29.8425 13.4927 29.5995 13.5718 29.4351C13.6379 29.2975 13.7292 29.1714 13.8396 29.0661C13.8898 29.0183 14.0222 28.9139 14.0301 28.9828C14.0439 29.1041 13.9288 29.2849 13.8828 29.386C13.8199 29.5241 13.7475 29.6627 13.6997 29.8072C13.6284 30.023 14.0632 29.6668 14.1164 29.6345C14.3674 29.4823 14.6502 29.3523 14.9259 29.2506C15.0615 29.2006 14.8197 29.6788 14.7979 29.7283C14.7699 29.792 14.6337 30.0164 14.7637 29.8444C14.9591 29.5857 15.1437 29.3113 15.3679 29.0765C15.406 29.0366 15.7867 28.6361 15.8188 28.8325C15.8707 29.1504 15.7779 29.5166 15.7339 29.831C15.7064 30.0278 15.6626 30.0397 15.7652 29.8726C15.8974 29.6573 16.0328 29.4554 16.2086 29.2729C16.2919 29.1865 16.4425 29.029 16.3396 29.2595C16.2848 29.3822 16.0067 29.6671 16.1223 29.5988C16.2852 29.5026 16.4224 29.3742 16.5955 29.2923C16.7655 29.2119 16.8023 29.2293 16.7771 29.4232C16.7469 29.6559 16.6634 29.8941 16.5539 30.1018C16.5152 30.1751 16.5981 29.8739 16.6134 29.8429C16.7024 29.6622 16.8108 29.4756 16.9527 29.331C17.0491 29.2327 16.9534 29.4334 16.9408 29.4649C16.91 29.5418 17.0551 29.385 17.0836 29.3667C17.2071 29.2875 17.2176 29.3008 17.2176 29.4381C17.2176 29.5001 17.1785 29.7237 17.222 29.7744C17.2744 29.8355 17.4848 29.7255 17.5301 29.6941C17.5426 29.6854 17.6642 29.5324 17.6268 29.6197C17.6027 29.6757 17.4934 29.8227 17.5182 29.767C17.5435 29.7099 17.6527 29.4851 17.7012 29.4932C17.7909 29.5081 17.8378 29.4665 17.914 29.4411" stroke="white" stroke-linecap="round"/>
<path d="M17.7629 29.7833C17.7598 29.7802 17.7931 29.7389 17.7958 29.7356C17.8315 29.6898 17.8791 29.6468 17.9312 29.6207C17.9494 29.6116 17.9597 29.606 17.9579 29.629C17.956 29.6523 17.9572 29.7078 17.9338 29.7221C17.9144 29.734 17.9044 29.7009 17.9023 29.6883C17.8954 29.6469 17.9056 29.6065 17.9264 29.5707C17.942 29.5438 17.9729 29.4896 18.0056 29.4799C18.0151 29.4771 18.0179 29.4861 18.0257 29.4783C18.0371 29.4669 18.0448 29.4518 18.0549 29.4394C18.069 29.422 18.0851 29.4077 18.0964 29.3882C18.1047 29.3739 18.1107 29.3644 18.1235 29.3539C18.1298 29.3487 18.1529 29.3361 18.1612 29.34C18.1703 29.3443 18.0632 29.4577 18.0514 29.4697C18.0038 29.5181 17.98 29.5851 17.9565 29.6471C17.9534 29.6552 17.9401 29.6773 17.9463 29.6712C17.9565 29.661 17.9613 29.6372 17.9699 29.6246C17.9946 29.5889 18.0203 29.5555 18.0424 29.5181C18.0563 29.4947 18.0722 29.4672 18.0788 29.4405C18.0836 29.4208 18.0938 29.3891 18.1089 29.3748C18.1336 29.3513 18.1784 29.3452 18.2089 29.3308C18.2322 29.3197 18.2585 29.3164 18.2839 29.3164" stroke="white" stroke-linecap="round"/>
<path d="M18.5253 29.1914C18.5762 29.1488 18.6228 29.102 18.6749 29.0608C18.7005 29.0406 18.7281 29.0128 18.7588 29.0006C18.7617 28.9994 18.7567 29.1772 18.7541 29.1939C18.7525 29.2044 18.7489 29.2579 18.7337 29.2655C18.7212 29.2718 18.7294 29.2376 18.73 29.2236C18.7329 29.1625 18.7552 29.0914 18.7861 29.0385C18.7974 29.0192 18.7936 29.0382 18.7898 29.0483C18.7699 29.1005 18.7471 29.1522 18.7243 29.2032C18.7169 29.2196 18.7088 29.2469 18.6972 29.2615C18.6831 29.2792 18.7118 29.2188 18.7203 29.1979C18.7358 29.1597 18.751 29.1218 18.7703 29.0853C18.7736 29.0792 18.7892 29.0456 18.787 29.0723C18.7772 29.1935 18.7304 29.3058 18.7034 29.4232C18.685 29.5032 18.6598 29.5783 18.6351 29.6564C18.6074 29.7439 18.5823 29.8256 18.5151 29.8894C18.4903 29.9129 18.4743 29.9413 18.4605 29.9723C18.4486 29.9989 18.4381 29.9232 18.438 29.9192C18.4372 29.8858 18.4397 29.8537 18.4491 29.8215C18.4543 29.8039 18.4596 29.7913 18.4665 29.7745C18.4691 29.7683 18.4716 29.7621 18.4744 29.756C18.4771 29.75 18.4798 29.7338 18.4841 29.7388C18.4955 29.7521 18.4446 29.8341 18.438 29.8465C18.4229 29.8749 18.4045 29.9009 18.3878 29.9283C18.3602 29.9735 18.443 29.8377 18.4744 29.7951C18.4762 29.7927 18.5132 29.7413 18.4971 29.781C18.4791 29.8253 18.4446 29.8624 18.4132 29.8977C18.4045 29.9076 18.38 29.9371 18.3841 29.9246C18.3924 29.8987 18.4186 29.8695 18.4327 29.8465C18.4607 29.8007 18.4921 29.7572 18.5272 29.7166C18.5509 29.6892 18.5441 29.7089 18.5332 29.7305C18.5119 29.7726 18.486 29.8125 18.4614 29.8528C18.4434 29.8823 18.4255 29.9164 18.4007 29.9412C18.3421 29.9999 18.5052 29.8124 18.5582 29.7486C18.5599 29.7465 18.5999 29.6918 18.5825 29.7326C18.5601 29.7854 18.5318 29.838 18.4971 29.8838C18.4749 29.913 18.4483 29.9384 18.42 29.9616C18.4192 29.9622 18.3877 29.9853 18.3873 29.9824C18.3862 29.9745 18.3988 29.9499 18.4012 29.9426C18.4092 29.9178 18.4208 29.895 18.4346 29.8729C18.4394 29.8651 18.4246 29.8885 18.419 29.8958C18.3952 29.9275 18.3684 29.9566 18.3405 29.9848C18.3264 29.9991 18.2935 30.0482 18.2729 30.0503C18.2698 30.0506 18.2752 30.0444 18.2771 30.042C18.2877 30.0279 18.2999 30.0148 18.3132 30.0033C18.329 29.9895 18.3678 29.953 18.3917 29.9565C18.4048 29.9585 18.3417 30.0317 18.3401 30.0408C18.3391 30.0461 18.3485 30.0341 18.3526 30.0306C18.3612 30.0233 18.379 30.0086 18.3868 30.0014C18.4139 29.9765 18.4381 29.9475 18.4607 29.9185C18.4783 29.896 18.4455 29.9127 18.4383 29.9162C18.4038 29.9328 18.3726 29.9554 18.3382 29.9723C18.3054 29.9883 18.3237 29.9823 18.3336 29.9625" stroke="white" stroke-width="0.1" stroke-linecap="round"/>
<path d="M10.1773 28.1588C10.1611 28.2887 10.1374 28.4215 10.1349 28.5524C10.1341 28.5925 10.1349 28.5765 10.1349 28.5474C10.1349 28.5031 10.1349 28.4588 10.1349 28.4145C10.1349 28.3701 10.1349 28.3256 10.1349 28.2811C10.1349 28.242 10.1445 28.302 10.1455 28.3073C10.1548 28.3588 10.1572 28.411 10.1641 28.4628C10.1679 28.4922 10.1741 28.497 10.1829 28.4667C10.1946 28.4264 10.2002 28.3846 10.2127 28.3444C10.2246 28.306 10.2392 28.2694 10.2486 28.2301C10.2578 28.1918 10.2568 28.2598 10.2568 28.2649C10.2568 28.2986 10.2543 28.3318 10.2518 28.3653C10.2485 28.411 10.2524 28.2738 10.2513 28.2281C10.2511 28.2238 10.2518 28.1585 10.2386 28.1624C10.2127 28.1699 10.1968 28.2249 10.1767 28.2431C10.163 28.2555 10.1669 28.2317 10.1661 28.2242C10.1638 28.2017 10.1567 28.1785 10.1496 28.1571C10.1488 28.1546 10.1406 28.1278 10.1367 28.1317C10.1215 28.147 10.1166 28.1725 10.1072 28.1913C10.1057 28.1943 10.0883 28.2241 10.0875 28.2181C10.0858 28.2052 10.0872 28.1913 10.0872 28.1783C10.0872 28.1719 10.0806 28.25 10.0978 28.2475C10.1144 28.2451 10.1137 28.1737 10.1137 28.1597C10.1137 28.1266 10.1136 28.1547 10.1178 28.1748C10.128 28.2228 10.1493 28.2676 10.1602 28.3156C10.1702 28.3593 10.172 28.4026 10.172 28.4472C10.172 28.496 10.172 28.5448 10.172 28.5936" stroke="white" stroke-width="0.1" stroke-linecap="round"/>
<path d="M10.1768 28.2543C10.1705 28.2926 10.1441 28.328 10.1303 28.3639C10.1048 28.4304 10.093 28.4991 10.092 28.5701C10.0918 28.5848 10.0801 28.7324 10.1132 28.7103" stroke="white" stroke-width="0.1" stroke-linecap="round"/>
<path d="M10.1134 28.3869C10.1075 28.4611 10.0835 28.5325 10.0819 28.6072C10.0802 28.6798 10.0816 28.7526 10.0816 28.8252C10.0816 28.8647 10.0816 28.9042 10.0816 28.9436" stroke="white" stroke-width="0.1" stroke-linecap="round"/>
<path d="M10.0815 28.0104V29.0391" stroke="white" stroke-width="0.1" stroke-linecap="round"/>
<path d="M10.0552 28.0475V29.4261" stroke="white" stroke-width="0.1" stroke-linecap="round"/>
<path d="M18.7881 29.0094V29.6505" stroke="white" stroke-width="0.1" stroke-linecap="round"/>
<path d="M18.8711 29.0094V29.7746" stroke="white" stroke-width="0.1" stroke-linecap="round"/>
<path d="M18.4521 30.0435C18.4943 30.0435 18.5315 30.0346 18.5558 29.9995C18.5642 29.9875 18.5712 29.9769 18.5762 29.9631C18.5795 29.9541 18.5819 29.9322 18.5877 29.9257C18.6028 29.909 18.6327 29.9107 18.6512 29.899C18.6601 29.8934 18.6701 29.8908 18.6774 29.8829C18.6834 29.8764 18.6901 29.8743 18.6975 29.8697C18.7077 29.8634 18.7107 29.8515 18.7199 29.8441C18.7387 29.829 18.7524 29.8066 18.773 29.7924C18.7889 29.7815 18.7974 29.7639 18.8118 29.7514C18.8191 29.745 18.8429 29.7237 18.8233 29.7448C18.7796 29.7915 18.6443 29.9223 18.6742 29.8657C18.6998 29.8173 18.7427 29.7785 18.7687 29.7298C18.7761 29.716 18.8197 29.6114 18.7762 29.6503C18.7391 29.6833 18.7123 29.7236 18.6828 29.7629C18.6604 29.7927 18.6921 29.6881 18.7044 29.6528C18.7306 29.5772 18.7029 29.6712 18.6952 29.6948C18.6862 29.7218 18.6759 29.7483 18.6664 29.7752C18.6638 29.7826 18.6662 29.7595 18.667 29.7517C18.6717 29.7089 18.6927 29.5815 18.6891 29.6244C18.6867 29.6538 18.679 29.6832 18.6719 29.7117C18.6663 29.734 18.6637 29.7756 18.6498 29.7947C18.6235 29.8308 18.6752 29.709 18.6923 29.6678C18.7044 29.6386 18.7153 29.6072 18.7314 29.5799C18.7499 29.5483 18.7417 29.5843 18.7377 29.5977C18.7184 29.661 18.6896 29.7215 18.6745 29.7858C18.6744 29.7862 18.6692 29.7203 18.6693 29.7051C18.6695 29.6787 18.6712 29.6527 18.6733 29.6264C18.6756 29.5995 18.6644 29.6392 18.6636 29.6413C18.6361 29.7135 18.618 29.788 18.5946 29.8614C18.5863 29.8875 18.5992 29.8105 18.6001 29.8051C18.6048 29.7776 18.6121 29.7507 18.6193 29.7238C18.6263 29.6979 18.6064 29.7617 18.6061 29.7626C18.5946 29.7936 18.5817 29.8238 18.5682 29.8539C18.5636 29.8641 18.5479 29.8924 18.5564 29.8852C18.5654 29.8778 18.576 29.8661 18.5866 29.8625" stroke="white" stroke-width="0.1" stroke-linecap="round"/>
<path d="M18.4727 30.0021C18.4916 30.0005 18.6103 29.8991 18.6318 29.9205C18.6378 29.9265 18.6008 29.9463 18.5942 29.953C18.5869 29.9602 18.5673 29.9885 18.5761 29.9711" stroke="white" stroke-width="0.1" stroke-linecap="round"/>
<path d="M18.9217 29.0195C18.9217 29.1178 18.9208 29.2154 18.9078 29.3129C18.9046 29.3372 18.9061 29.4107 18.9061 29.3863C18.9061 29.3669 18.9061 29.3475 18.9061 29.3281" stroke="white" stroke-width="0.1" stroke-linecap="round"/>
<path d="M19.3398 28.9649C19.3342 29.0119 19.3022 29.0597 19.2778 29.0985C19.2233 29.1851 19.1548 29.2635 19.0825 29.3355C19.0774 29.3406 18.9855 29.423 18.9818 29.4069C18.9782 29.3918 18.9848 29.3691 18.9887 29.355C19.0015 29.3086 19.0244 29.265 19.0469 29.2227C19.0858 29.1492 19.1314 29.0719 19.1884 29.0106C19.1923 29.0064 19.2091 28.9878 19.2183 28.99C19.2238 28.9914 19.2191 29.0016 19.2174 29.007C19.2125 29.0228 19.1987 29.0576 19.1931 29.0703C19.1445 29.1827 19.0819 29.2906 18.9935 29.3763C18.9777 29.3916 18.9445 29.4295 18.9184 29.4288C18.8989 29.4283 18.9272 29.3705 18.9284 29.3678C18.9754 29.2602 19.0465 29.1604 19.1137 29.0647C19.1367 29.032 19.1602 28.9998 19.1827 28.9668C19.1856 28.9626 19.2104 28.9237 19.1923 28.9583C19.1341 29.0693 19.0623 29.1796 18.9761 29.2708C18.9452 29.3036 18.9093 29.335 18.8681 29.3542C18.8523 29.3615 18.8509 29.3567 18.8568 29.342C18.892 29.254 18.9422 29.1712 18.9842 29.0864C19.0037 29.047 19.0236 29.0078 19.043 28.9683C19.0667 28.92 19.0476 28.9694 19.0404 28.987C18.9909 29.1073 18.9244 29.2218 18.8487 29.3275C18.8249 29.3608 18.8535 29.3146 18.8546 29.3129C18.8847 29.2687 18.9175 29.226 18.9499 29.1834C18.9998 29.1176 19.0621 29.0255 19.1411 28.9913C19.1817 28.9737 19.1995 28.9888 19.2131 29.0252C19.216 29.0331 19.2381 29.0637 19.227 29.0655C19.2033 29.0696 19.1795 29.0716 19.1558 29.0764C19.1497 29.0776 19.0926 29.0946 19.0907 29.0872C19.0838 29.0595 19.1471 29.0054 19.1636 28.9894C19.1712 28.982 19.219 28.9328 19.2188 28.9666C19.2182 29.0327 19.1926 29.0949 19.1597 29.1511C19.158 29.1541 19.1522 29.1628 19.1539 29.1597C19.1642 29.1401 19.1776 29.1216 19.1899 29.1031C19.2037 29.0823 19.2179 29.0618 19.2326 29.0417C19.2337 29.0402 19.2594 29.0084 19.2591 29.0109C19.2531 29.0574 19.2236 29.1059 19.1986 29.1443C19.1949 29.1499 19.1834 29.1656 19.1849 29.1591C19.191 29.1325 19.2022 29.106 19.2112 29.0803C19.2197 29.0556 19.2295 29.032 19.2413 29.0087C19.2416 29.0082 19.266 28.964 19.2678 28.9679C19.2727 28.9783 19.2627 29.0069 19.2609 29.0152C19.2491 29.0679 19.2371 29.1203 19.2177 29.1708C19.1935 29.2337 19.1587 29.3175 19.1081 29.365C19.1053 29.3676 19.0986 29.3726 19.0972 29.3646C19.0956 29.3551 19.1008 29.3349 19.1029 29.3277C19.116 29.2826 19.1362 29.2393 19.1523 29.1953C19.1716 29.1429 19.1945 29.0888 19.2099 29.0352C19.2122 29.0271 19.2017 29.0498 19.1979 29.0573C19.1759 29.101 19.1546 29.1451 19.1302 29.1875C19.0894 29.2584 19.0372 29.3238 19.0048 29.3993C18.9951 29.4219 18.9886 29.4485 18.9727 29.4679C18.9239 29.5272 18.8729 29.5885 18.8186 29.6428C18.814 29.6474 18.8094 29.6526 18.8064 29.6584C18.8024 29.6662 18.818 29.6454 18.8238 29.6389C18.8677 29.5892 18.9217 29.5488 18.9703 29.5039C18.9738 29.5007 19.1333 29.3308 19.1528 29.3616C19.1593 29.3719 19.1467 29.3941 19.143 29.4019C19.1274 29.4349 19.1086 29.4667 19.0896 29.4978C19.0633 29.5412 19.0321 29.5791 19.0017 29.6194C18.9821 29.6455 18.9938 29.6134 18.9998 29.5981C19.0288 29.524 19.0914 29.4626 19.1419 29.403C19.1498 29.3937 19.1684 29.3626 19.1645 29.3741C19.158 29.3937 19.1346 29.4169 19.1224 29.4323C19.0708 29.4975 19.0105 29.5605 18.9464 29.6135C18.9386 29.62 18.8757 29.6568 18.8789 29.6719C18.8802 29.678 18.89 29.6659 18.895 29.6621C18.9222 29.6411 18.9502 29.6225 18.9798 29.6048C19.0098 29.587 19.0396 29.5691 19.069 29.5504C19.088 29.5382 19.1357 29.4938 19.1263 29.5143C19.1197 29.5289 19.0974 29.5454 19.0864 29.5551C19.0556 29.5824 19.022 29.6062 18.9861 29.6263C18.9385 29.653 18.8894 29.6833 18.8394 29.7053C18.8287 29.71 18.8156 29.7144 18.8056 29.7205C18.7389 29.761 18.909 29.6035 18.9653 29.5495C18.982 29.5335 18.9988 29.5176 19.0156 29.5017C19.0204 29.4972 19.0327 29.4823 19.0304 29.4885C19.0094 29.5436 18.9772 29.5923 18.9355 29.6339C18.8973 29.6722 18.8513 29.7018 18.8142 29.7413C18.7963 29.7604 18.7864 29.7841 18.7689 29.803C18.7461 29.8274 18.7172 29.8641 18.6875 29.8789" stroke="white" stroke-width="0.1" stroke-linecap="round"/>
<path d="M18.5625 29.9571C18.6359 29.8864 18.7168 29.8245 18.8023 29.7694C18.8399 29.7451 18.8773 29.718 18.9141 29.6923C18.9518 29.6659 18.991 29.6395 19.0273 29.6114C19.1064 29.5501 19.1717 29.476 19.2266 29.3924C19.2903 29.2952 19.357 29.2001 19.4199 29.1022C19.4524 29.0517 19.4964 29.0233 19.5495 28.9983C19.58 28.9839 19.611 28.97 19.6402 28.9529C19.6557 28.9438 19.6707 28.9339 19.6849 28.9228C19.6873 28.9208 19.6991 28.908 19.7036 28.908C19.7064 28.908 19.7014 28.9134 19.6999 28.9158C19.6911 28.9296 19.6816 28.943 19.6714 28.9558C19.6244 29.0151 19.573 29.0723 19.5187 29.125C19.4423 29.1992 19.3618 29.2708 19.2828 29.3423C19.2724 29.3516 19.263 29.3588 19.2747 29.3399C19.3093 29.2842 19.3514 29.2321 19.3932 29.1819C19.4378 29.1284 19.4858 29.0815 19.5441 29.0432C19.5632 29.0306 19.5949 29.0008 19.5779 29.0426C19.5513 29.1079 19.5046 29.1657 19.4588 29.2184C19.3746 29.315 19.2756 29.4001 19.1697 29.4723C19.1493 29.4862 19.125 29.5011 19.1033 29.5135C19.099 29.516 19.0716 29.5345 19.0632 29.5332C19.0541 29.5318 19.0728 29.5176 19.0786 29.5105C19.0987 29.4857 19.1196 29.4617 19.1404 29.4375C19.197 29.372 19.2546 29.3081 19.3181 29.2492C19.386 29.1862 19.4595 29.1318 19.5328 29.0756C19.5691 29.0477 19.6021 29.015 19.6389 28.9879C19.6642 28.9692 19.6261 29.0383 19.6246 29.0408C19.5945 29.0909 19.551 29.1304 19.5091 29.1704C19.4516 29.2253 19.3916 29.2748 19.324 29.3169C19.3217 29.3183 19.2467 29.3628 19.2461 29.3546C19.245 29.3401 19.2743 29.3164 19.2817 29.3095C19.3096 29.2832 19.3397 29.2588 19.3702 29.2357C19.4412 29.1821 19.5171 29.1352 19.5924 29.0881C19.6278 29.0661 19.6634 29.0417 19.7023 29.0259C19.718 29.0194 19.6956 29.0516 19.6949 29.0526C19.6586 29.1036 19.6043 29.1364 19.5503 29.1658C19.4777 29.2056 19.4039 29.2432 19.3314 29.2832C19.3065 29.297 19.2815 29.3113 19.2552 29.3225C19.2475 29.3258 19.2367 29.3315 19.2431 29.3186C19.3014 29.1995 19.4049 29.1031 19.4996 29.0131C19.4998 29.0128 19.5504 28.9678 19.5425 28.9835C19.5079 29.0528 19.4483 29.1156 19.3969 29.1723C19.3409 29.2342 19.2798 29.3071 19.2053 29.3477C19.1307 29.3883 19.2202 29.2756 19.23 29.2639C19.3128 29.1655 19.5985 28.905 19.5076 28.9959C19.4633 29.0402 19.4174 29.0841 19.3689 29.1237C19.3508 29.1386 19.2768 29.1959 19.3303 29.1394C19.3655 29.1022 19.4019 29.0658 19.4397 29.0313C19.4415 29.0296 19.4657 29.004 19.4722 29.0052C19.4736 29.0055 19.4725 29.0082 19.472 29.0096C19.4686 29.0194 19.4585 29.0353 19.454 29.0424C19.4285 29.082 19.3987 29.1246 19.3628 29.1559C19.3539 29.1636 19.3534 29.1573 19.3553 29.1485C19.3605 29.1233 19.3707 29.0987 19.3806 29.0751C19.4017 29.0252 19.428 28.9776 19.4457 28.9263C19.447 28.9227 19.4607 28.8902 19.4544 28.8833C19.4466 28.8746 19.4334 28.8941 19.4247 28.9019C19.3722 28.9488 19.3246 29.0013 19.2756 29.0517C19.2243 29.1044 19.1778 29.1542 19.1367 29.2149" stroke="white" stroke-width="0.1" stroke-linecap="round"/>
<path d="M19.7852 28.9844C19.7532 28.9974 19.7219 29.0261 19.6936 29.0456C19.6624 29.067 19.6186 29.0911 19.5946 29.1211C19.5906 29.1261 19.5843 29.1273 19.579 29.1306C19.5655 29.1392 19.5546 29.1524 19.543 29.1632C19.5095 29.1944 19.4829 29.231 19.4507 29.2632C19.4281 29.2859 19.4011 29.3047 19.3793 29.3283C19.3622 29.3471 19.3474 29.3666 19.3281 29.3837C19.3081 29.4014 19.2933 29.4246 19.2734 29.4427C19.2439 29.4696 19.2122 29.4927 19.1782 29.5135C19.1375 29.5383 19.0964 29.5687 19.0584 29.5977C19.0086 29.6356 18.9544 29.6677 18.9049 29.7062C18.8537 29.746 18.8015 29.7893 18.7563 29.8357C18.7353 29.8573 18.7151 29.8961 18.6836 29.9023" stroke="white" stroke-width="0.1" stroke-linecap="round"/>
<path d="M19.7225 29.0117C19.5978 29.0605 19.4985 29.1515 19.3863 29.2229C19.3086 29.2723 19.2339 29.3306 19.1678 29.3947C19.1318 29.4296 19.0926 29.4609 19.0569 29.4959C19.0272 29.5249 18.9978 29.5553 18.9645 29.5801C18.9149 29.6169 18.8638 29.6512 18.8141 29.6875C18.7662 29.7224 18.7275 29.765 18.6843 29.8047C18.648 29.838 18.6248 29.8852 18.5966 29.9249C18.5783 29.9507 18.5567 29.9788 18.5437 30.0078C18.5311 30.0358 18.5541 30.0243 18.5695 30.0119C18.5817 30.0021 18.5962 29.9991 18.6077 29.9885C18.6142 29.9825 18.6235 29.9765 18.6307 29.9709C18.6382 29.9651 18.6404 29.9541 18.6483 29.9497C18.6594 29.9433 18.6645 29.9336 18.6739 29.9256C18.6919 29.9101 18.7124 29.9006 18.7312 29.8867C18.752 29.8713 18.7722 29.8568 18.7928 29.8407C18.8129 29.8251 18.8406 29.8063 18.8562 29.7869C18.8752 29.7631 18.9039 29.7476 18.9226 29.7244C18.9596 29.6784 19.0073 29.6416 19.0523 29.6037C19.0805 29.5801 19.1165 29.5654 19.145 29.5414C19.1659 29.5239 19.1874 29.5053 19.2105 29.4902C19.3164 29.4215 19.4025 29.3278 19.4911 29.2391C19.5118 29.2185 19.535 29.1999 19.5563 29.1799C19.5829 29.1548 19.6129 29.1289 19.6461 29.1115C19.6638 29.1023 19.6793 29.0891 19.696 29.0781C19.7185 29.0634 19.7444 29.0495 19.7624 29.0295C19.8018 28.9858 19.8606 28.9632 19.8983 28.918" stroke="white" stroke-width="0.1" stroke-linecap="round"/>
</svg>
