<svg width="10" height="11" viewBox="0 0 10 11" fill="none" xmlns="http://www.w3.org/2000/svg">
<path d="M1.18 9.86C0.9 9.64 0.87 9.39 1.09 9.11L4.23 5.13L1.35 1.42C1.13 1.15333 1.15667 0.906666 1.43 0.68C1.71 0.473333 1.95667 0.503333 2.17 0.77L4.98 4.38L7.9 0.77C8.12 0.483333 8.36667 0.456666 8.64 0.689999C8.92 0.909999 8.95 1.15333 8.73 1.42L5.63 5.23L8.67 9.12C8.89 9.40667 8.86333 9.65 8.59 9.85C8.31 10.0767 8.06 10.05 7.84 9.77L4.9 5.99L1.91 9.76C1.69 10.0467 1.44667 10.08 1.18 9.86Z" fill="#B5B7B9"/>
</svg>
