<svg width="185" height="38" viewBox="0 0 185 38" fill="none" xmlns="http://www.w3.org/2000/svg">
<path d="M179.5 35.5C175.9 32.7 175.333 29.3333 175.5 28C174.5 27 161 25.5 165 29.5C169 33.5 184 39 179.5 35.5Z" fill="#FFCAC1" stroke="#3D5EA3"/>
<rect x="-0.5" y="0.5" width="184" height="29" rx="14.5" transform="matrix(-1 0 0 1 184 0)" fill="#FFCAC1" stroke="#3D5EA3"/>
<path d="M173.26 29.491C173.292 29.5419 173.325 29.591 173.353 29.6376C173.481 29.8469 173.446 29.7927 173.407 29.5944C173.398 29.5468 173.388 29.4987 173.378 29.4505C173.377 29.4339 173.373 29.4141 173.368 29.3905C173.358 29.3422 173.347 29.2944 173.338 29.2465C173.337 29.241 173.336 29.2355 173.335 29.23C173.321 29.1559 173.31 29.0817 173.303 29.0081C173.302 29.0027 173.302 28.9933 173.301 28.9844C173.329 28.9475 173.34 28.8969 173.351 28.87C173.388 28.9177 173.433 28.9678 173.395 28.8906C173.371 28.8401 173.361 28.8442 173.351 28.87C173.332 28.8458 173.315 28.8223 173.312 28.8161C173.297 28.7887 173.186 28.4984 173.154 28.6034C173.107 28.7566 173.129 28.926 173.08 29.081C173.036 29.218 172.945 29.2223 172.825 29.2551C172.745 29.277 173.104 29.4069 173.133 29.4203C173.177 29.4405 173.221 29.469 173.26 29.491Z" fill="#FFCAC1"/>
<path d="M173.112 29.1733C173.146 29.3354 173.268 29.4982 173.353 29.6376C173.481 29.8469 173.446 29.7927 173.407 29.5944C173.37 29.402 173.322 29.2033 173.303 29.0081C173.301 28.9938 173.299 28.9506 173.3 28.965C173.306 29.1108 173.338 29.2484 173.368 29.3905C173.42 29.6314 173.27 29.484 173.133 29.4203C173.104 29.4069 172.745 29.277 172.825 29.2551C172.945 29.2223 173.036 29.218 173.08 29.081C173.129 28.926 173.107 28.7566 173.154 28.6034C173.186 28.4984 173.297 28.7887 173.312 28.8161C173.322 28.8346 173.451 29.0068 173.395 28.8906C173.338 28.7726 173.361 28.9526 173.273 29.0111C173.148 29.0942 173.113 29.102 173.24 29.1852C173.333 29.2458 173.409 29.292 173.514 29.334" stroke="#FFCAC1" stroke-width="3" stroke-linecap="round"/>
<path d="M171.297 29.8723C171.375 29.9529 171.513 30.0843 171.526 30.0274C171.571 29.8425 171.507 29.5995 171.428 29.4351C171.362 29.2975 171.271 29.1714 171.16 29.0661C171.11 29.0183 170.978 28.9139 170.97 28.9828C170.956 29.1041 171.071 29.2849 171.117 29.386C171.18 29.5241 171.253 29.6627 171.3 29.8072C171.313 29.8443 171.31 29.8645 171.297 29.8723C171.233 29.91 170.928 29.6612 170.884 29.6345C170.633 29.4823 170.35 29.3523 170.074 29.2506C169.938 29.2006 170.18 29.6788 170.202 29.7283C170.23 29.792 170.366 30.0164 170.236 29.8444C170.041 29.5857 169.856 29.3113 169.632 29.0765L169.631 29.0757C169.589 29.0312 169.213 28.6374 169.181 28.8325C169.129 29.1504 169.222 29.5166 169.266 29.831C169.294 30.0278 169.337 30.0397 169.235 29.8726C169.103 29.6573 168.967 29.4554 168.791 29.2729L168.789 29.2704C168.705 29.1835 168.558 29.0312 168.66 29.2595C168.715 29.3822 168.993 29.6671 168.878 29.5988C168.715 29.5026 168.578 29.3742 168.404 29.2923C168.235 29.2119 168.198 29.2293 168.223 29.4232C168.231 29.4838 168.242 29.5447 168.257 29.6053C168.196 29.5063 168.127 29.412 168.047 29.331C167.951 29.2327 168.047 29.4334 168.059 29.4649C168.09 29.5418 167.945 29.385 167.916 29.3667C167.793 29.2875 167.782 29.3008 167.782 29.4381C167.782 29.5001 167.821 29.7237 167.778 29.7744C167.726 29.8355 167.515 29.7255 167.47 29.6941C167.465 29.6904 167.439 29.6604 167.415 29.634C167.383 29.5986 167.352 29.5697 167.373 29.6197C167.397 29.6757 167.507 29.8227 167.482 29.767C167.471 29.7427 167.445 29.6881 167.415 29.634C167.439 29.6604 167.465 29.6904 167.47 29.6941C167.515 29.7255 167.726 29.8355 167.778 29.7744C167.821 29.7237 167.782 29.5001 167.782 29.4381C167.782 29.3008 167.793 29.2875 167.916 29.3667C167.945 29.385 168.09 29.5418 168.059 29.4649C168.047 29.4334 167.951 29.2327 168.047 29.331C168.127 29.412 168.196 29.5063 168.257 29.6053C168.298 29.7778 168.365 29.9481 168.446 30.1018C168.485 30.1751 168.402 29.8739 168.387 29.8429C168.347 29.7635 168.305 29.6829 168.257 29.6053C168.242 29.5447 168.231 29.4838 168.223 29.4232C168.198 29.2293 168.235 29.2119 168.404 29.2923C168.578 29.3742 168.715 29.5026 168.878 29.5988C168.993 29.6671 168.715 29.3822 168.66 29.2595C168.558 29.0312 168.705 29.1835 168.789 29.2704L168.791 29.2729C168.967 29.4554 169.103 29.6573 169.235 29.8726C169.337 30.0397 169.294 30.0278 169.266 29.831C169.222 29.5166 169.129 29.1504 169.181 28.8325C169.213 28.6374 169.589 29.0312 169.631 29.0757L169.632 29.0765C169.856 29.3113 170.041 29.5857 170.236 29.8444C170.366 30.0164 170.23 29.792 170.202 29.7283C170.18 29.6788 169.938 29.2006 170.074 29.2506C170.35 29.3523 170.633 29.4823 170.884 29.6345C170.928 29.6612 171.233 29.91 171.297 29.8723Z" fill="#FFCAC1"/>
<path d="M170.916 29.2268C170.961 29.4437 171.099 29.653 171.244 29.8161C171.258 29.8324 171.508 30.105 171.526 30.0274C171.571 29.8425 171.507 29.5995 171.428 29.4351C171.362 29.2975 171.271 29.1714 171.16 29.0661C171.11 29.0183 170.978 28.9139 170.97 28.9828C170.956 29.1041 171.071 29.2849 171.117 29.386C171.18 29.5241 171.253 29.6627 171.3 29.8072C171.372 30.023 170.937 29.6668 170.884 29.6345C170.633 29.4823 170.35 29.3523 170.074 29.2506C169.938 29.2006 170.18 29.6788 170.202 29.7283C170.23 29.792 170.366 30.0164 170.236 29.8444C170.041 29.5857 169.856 29.3113 169.632 29.0765C169.594 29.0366 169.213 28.6361 169.181 28.8325C169.129 29.1504 169.222 29.5166 169.266 29.831C169.294 30.0278 169.337 30.0397 169.235 29.8726C169.103 29.6573 168.967 29.4554 168.791 29.2729C168.708 29.1865 168.557 29.029 168.66 29.2595C168.715 29.3822 168.993 29.6671 168.878 29.5988C168.715 29.5026 168.578 29.3742 168.404 29.2923C168.235 29.2119 168.198 29.2293 168.223 29.4232C168.253 29.6559 168.337 29.8941 168.446 30.1018C168.485 30.1751 168.402 29.8739 168.387 29.8429C168.298 29.6622 168.189 29.4756 168.047 29.331C167.951 29.2327 168.047 29.4334 168.059 29.4649C168.09 29.5418 167.945 29.385 167.916 29.3667C167.793 29.2875 167.782 29.3008 167.782 29.4381C167.782 29.5001 167.821 29.7237 167.778 29.7744C167.726 29.8355 167.515 29.7255 167.47 29.6941C167.457 29.6854 167.336 29.5324 167.373 29.6197C167.397 29.6757 167.507 29.8227 167.482 29.767C167.456 29.7099 167.347 29.4851 167.299 29.4932C167.209 29.5081 167.162 29.4665 167.086 29.4411" stroke="#FFCAC1" stroke-linecap="round"/>
<path d="M167.044 29.6542C167.045 29.6798 167.049 29.7118 167.066 29.7221C167.086 29.734 167.096 29.7009 167.098 29.6883C167.101 29.6711 167.1 29.6539 167.098 29.6373C167.094 29.614 167.086 29.5916 167.074 29.5707C167.058 29.5438 167.027 29.4896 166.994 29.4799C166.985 29.4771 166.982 29.4861 166.974 29.4783C166.963 29.4669 166.955 29.4518 166.945 29.4394C166.931 29.422 166.915 29.4077 166.904 29.3882C166.895 29.3739 166.889 29.3644 166.877 29.3539C166.87 29.3487 166.847 29.3361 166.839 29.34C166.837 29.3407 166.839 29.3439 166.842 29.3489C166.854 29.3676 166.894 29.4112 166.921 29.4409C166.928 29.4675 166.944 29.4948 166.958 29.5181C166.98 29.5555 167.005 29.5889 167.03 29.6246C167.035 29.6322 167.039 29.6439 167.044 29.6542Z" fill="#FFCAC1"/>
<path d="M167.237 29.7833C167.24 29.7802 167.207 29.7389 167.204 29.7356C167.169 29.6898 167.121 29.6468 167.069 29.6207C167.051 29.6116 167.04 29.606 167.042 29.629C167.044 29.6523 167.043 29.7078 167.066 29.7221C167.086 29.734 167.096 29.7009 167.098 29.6883C167.105 29.6469 167.094 29.6065 167.074 29.5707C167.058 29.5438 167.027 29.4896 166.994 29.4799C166.985 29.4771 166.982 29.4861 166.974 29.4783C166.963 29.4669 166.955 29.4518 166.945 29.4394C166.931 29.422 166.915 29.4077 166.904 29.3882C166.895 29.3739 166.889 29.3644 166.877 29.3539C166.87 29.3487 166.847 29.3361 166.839 29.34C166.83 29.3443 166.937 29.4577 166.949 29.4697C166.996 29.5181 167.02 29.5851 167.044 29.6471C167.047 29.6552 167.06 29.6773 167.054 29.6712C167.043 29.661 167.039 29.6372 167.03 29.6246C167.005 29.5889 166.98 29.5555 166.958 29.5181C166.944 29.4947 166.928 29.4672 166.921 29.4405C166.916 29.4208 166.906 29.3891 166.891 29.3748C166.866 29.3513 166.822 29.3452 166.791 29.3308C166.768 29.3197 166.742 29.3164 166.716 29.3164" stroke="#FFCAC1" stroke-linecap="round"/>
<path d="M166.243 29.1278C166.244 29.1603 166.245 29.1878 166.246 29.1939C166.247 29.2043 166.251 29.2578 166.266 29.2654C166.279 29.2717 166.271 29.2375 166.27 29.2235C166.269 29.2089 166.267 29.1938 166.265 29.1784C166.268 29.1867 166.272 29.1949 166.276 29.2031C166.283 29.2196 166.291 29.2469 166.303 29.2615C166.317 29.2791 166.288 29.2187 166.28 29.1978C166.272 29.179 166.264 29.1603 166.256 29.1417C166.252 29.1265 166.247 29.1114 166.242 29.0967C166.234 29.076 166.224 29.0562 166.214 29.0385C166.203 29.0192 166.206 29.0382 166.21 29.0482C166.212 29.0529 166.214 29.0577 166.216 29.0624C166.214 29.0611 166.212 29.0632 166.213 29.0723C166.223 29.1935 166.27 29.3058 166.297 29.4231C166.315 29.5031 166.34 29.5782 166.365 29.6563C166.393 29.7438 166.418 29.8256 166.485 29.8893C166.51 29.9129 166.526 29.9412 166.54 29.9722C166.547 29.9893 166.554 29.9642 166.558 29.943C166.559 29.9436 166.56 29.9443 166.561 29.945C166.577 29.9649 166.594 29.9841 166.613 30.0014C166.621 30.0086 166.639 30.0232 166.647 30.0306C166.652 30.034 166.661 30.046 166.66 30.0407C166.658 30.0316 166.595 29.9584 166.608 29.9564C166.618 29.9549 166.631 29.9607 166.644 29.9689C166.649 29.9742 166.654 29.9795 166.659 29.9847C166.674 29.999 166.706 30.0482 166.727 30.0502C166.73 30.0505 166.725 30.0444 166.723 30.0419C166.712 30.0279 166.7 30.0148 166.687 30.0032C166.678 29.9953 166.661 29.9799 166.644 29.9689C166.64 29.9646 166.636 29.9604 166.632 29.956C166.614 29.9368 166.597 29.9169 166.581 29.8958C166.578 29.8915 166.571 29.8818 166.568 29.876C166.574 29.8833 166.58 29.8905 166.587 29.8976C166.591 29.9029 166.601 29.9139 166.608 29.921C166.618 29.9377 166.622 29.944 166.612 29.9282C166.611 29.926 166.609 29.9237 166.608 29.9215C166.614 29.9273 166.618 29.9302 166.616 29.9245C166.608 29.8986 166.581 29.8695 166.567 29.8464C166.562 29.8374 166.556 29.8284 166.55 29.8195C166.545 29.803 166.54 29.7908 166.534 29.7749L166.533 29.7744L166.533 29.7744C166.531 29.7682 166.528 29.762 166.526 29.7559C166.523 29.7499 166.52 29.7338 166.516 29.7388C166.51 29.7454 166.52 29.7688 166.532 29.7923C166.513 29.7661 166.494 29.7408 166.473 29.7165C166.449 29.6891 166.456 29.7088 166.467 29.7304C166.488 29.7725 166.514 29.8125 166.539 29.8527C166.545 29.8636 166.552 29.875 166.559 29.8865C166.519 29.8395 166.467 29.7795 166.442 29.7485C166.44 29.7465 166.4 29.6917 166.417 29.7325C166.44 29.7853 166.468 29.838 166.503 29.8837C166.519 29.9054 166.538 29.9249 166.558 29.943C166.554 29.9642 166.547 29.9893 166.54 29.9722C166.526 29.9412 166.51 29.9129 166.485 29.8893C166.418 29.8256 166.393 29.7438 166.365 29.6563C166.34 29.5782 166.315 29.5031 166.297 29.4231C166.27 29.3058 166.223 29.1935 166.213 29.0723C166.212 29.0632 166.214 29.0611 166.216 29.0624C166.224 29.0843 166.233 29.1061 166.243 29.1278Z" fill="#FFCAC1"/>
<path d="M166.475 29.1913C166.424 29.1488 166.377 29.1019 166.325 29.0607C166.3 29.0405 166.272 29.0127 166.241 29.0005C166.238 28.9993 166.243 29.1772 166.246 29.1939C166.247 29.2043 166.251 29.2578 166.266 29.2654C166.279 29.2717 166.271 29.2375 166.27 29.2235C166.267 29.1624 166.245 29.0913 166.214 29.0385C166.203 29.0192 166.206 29.0382 166.21 29.0482C166.23 29.1004 166.253 29.1521 166.276 29.2031C166.283 29.2196 166.291 29.2469 166.303 29.2615C166.317 29.2791 166.288 29.2187 166.28 29.1978C166.264 29.1597 166.249 29.1217 166.23 29.0853C166.226 29.0791 166.211 29.0455 166.213 29.0723C166.223 29.1935 166.27 29.3058 166.297 29.4231C166.315 29.5031 166.34 29.5782 166.365 29.6563C166.393 29.7438 166.418 29.8256 166.485 29.8893C166.51 29.9129 166.526 29.9412 166.54 29.9722C166.551 29.9988 166.562 29.9231 166.562 29.9192C166.563 29.8858 166.56 29.8536 166.551 29.8214C166.546 29.8038 166.54 29.7912 166.533 29.7744C166.531 29.7682 166.528 29.762 166.526 29.7559C166.523 29.7499 166.52 29.7338 166.516 29.7388C166.504 29.7521 166.555 29.834 166.562 29.8464C166.577 29.8749 166.596 29.9008 166.612 29.9282C166.64 29.9734 166.557 29.8377 166.526 29.795C166.524 29.7926 166.487 29.7412 166.503 29.7809C166.521 29.8253 166.555 29.8623 166.587 29.8976C166.596 29.9075 166.62 29.9371 166.616 29.9245C166.608 29.8986 166.581 29.8695 166.567 29.8464C166.539 29.8006 166.508 29.7571 166.473 29.7165C166.449 29.6891 166.456 29.7088 166.467 29.7304C166.488 29.7725 166.514 29.8125 166.539 29.8527C166.557 29.8822 166.574 29.9164 166.599 29.9412C166.658 29.9998 166.495 29.8123 166.442 29.7485C166.44 29.7465 166.4 29.6917 166.417 29.7325C166.44 29.7853 166.468 29.838 166.503 29.8837C166.525 29.913 166.552 29.9384 166.58 29.9615C166.581 29.9622 166.612 29.9852 166.613 29.9824C166.614 29.9745 166.601 29.9499 166.599 29.9426C166.591 29.9178 166.579 29.8949 166.565 29.8728C166.561 29.865 166.575 29.8884 166.581 29.8958C166.605 29.9275 166.632 29.9565 166.659 29.9847C166.674 29.999 166.706 30.0482 166.727 30.0502C166.73 30.0505 166.725 30.0444 166.723 30.0419C166.712 30.0279 166.7 30.0148 166.687 30.0032C166.671 29.9895 166.632 29.9529 166.608 29.9564C166.595 29.9584 166.658 30.0316 166.66 30.0407C166.661 30.046 166.652 30.034 166.647 30.0306C166.639 30.0232 166.621 30.0086 166.613 30.0014C166.586 29.9765 166.562 29.9474 166.539 29.9185C166.522 29.896 166.554 29.9127 166.562 29.9162C166.596 29.9328 166.627 29.9554 166.662 29.9722C166.695 29.9882 166.676 29.9823 166.666 29.9625" stroke="#FFCAC1" stroke-width="0.1" stroke-linecap="round"/>
<path d="M174.848 28.349C174.846 28.3342 174.844 28.3195 174.842 28.3047C174.854 28.2608 174.873 28.2191 174.882 28.1748C174.883 28.1726 174.883 28.1705 174.883 28.1682C174.884 28.1709 174.885 28.1736 174.886 28.1762C174.887 28.2021 174.889 28.2457 174.902 28.2475C174.919 28.25 174.913 28.1719 174.913 28.1783C174.913 28.1913 174.914 28.2052 174.913 28.2181C174.912 28.2241 174.894 28.1943 174.893 28.1913C174.89 28.1866 174.888 28.1815 174.886 28.1762C174.886 28.1688 174.886 28.1628 174.886 28.1597C174.886 28.1301 174.886 28.1495 174.883 28.1682C174.878 28.1548 174.873 28.1413 174.863 28.1317C174.859 28.1278 174.851 28.1546 174.85 28.1571C174.843 28.1785 174.836 28.2017 174.834 28.2242C174.834 28.2278 174.834 28.235 174.834 28.2403C174.833 28.2462 174.83 28.2496 174.823 28.2431C174.803 28.2249 174.787 28.1699 174.761 28.1624C174.75 28.1592 174.749 28.2037 174.749 28.2213C174.742 28.2055 174.743 28.2604 174.743 28.2649C174.743 28.2978 174.746 28.3303 174.748 28.363L174.748 28.3653C174.752 28.411 174.748 28.2738 174.749 28.2281C174.749 28.2274 174.749 28.2249 174.749 28.2213C174.75 28.2232 174.75 28.2261 174.751 28.2301C174.761 28.2694 174.775 28.306 174.787 28.3444C174.8 28.3846 174.805 28.4264 174.817 28.4667C174.821 28.4812 174.825 28.4877 174.828 28.4873C174.831 28.4868 174.834 28.4781 174.836 28.4628C174.841 28.425 174.844 28.3868 174.848 28.349C174.857 28.4168 174.864 28.4849 174.865 28.5524C174.865 28.5526 174.865 28.5527 174.865 28.5529C174.865 28.5782 174.866 28.5898 174.865 28.5529C174.865 28.5511 174.865 28.5493 174.865 28.5474V28.4145V28.2811C174.865 28.242 174.855 28.302 174.854 28.3073C174.852 28.3211 174.85 28.335 174.848 28.349Z" fill="#FFCAC1"/>
<path d="M174.823 28.1588C174.839 28.2887 174.863 28.4215 174.865 28.5524C174.866 28.5925 174.865 28.5765 174.865 28.5474C174.865 28.5031 174.865 28.4588 174.865 28.4145C174.865 28.3701 174.865 28.3256 174.865 28.2811C174.865 28.242 174.855 28.302 174.854 28.3073C174.845 28.3588 174.843 28.411 174.836 28.4628C174.832 28.4922 174.826 28.497 174.817 28.4667C174.805 28.4264 174.8 28.3846 174.787 28.3444C174.775 28.306 174.761 28.2694 174.751 28.2301C174.742 28.1918 174.743 28.2598 174.743 28.2649C174.743 28.2986 174.746 28.3318 174.748 28.3653C174.752 28.411 174.748 28.2738 174.749 28.2281C174.749 28.2238 174.748 28.1585 174.761 28.1624C174.787 28.1699 174.803 28.2249 174.823 28.2431C174.837 28.2555 174.833 28.2317 174.834 28.2242C174.836 28.2017 174.843 28.1785 174.85 28.1571C174.851 28.1546 174.859 28.1278 174.863 28.1317C174.879 28.147 174.883 28.1725 174.893 28.1913C174.894 28.1943 174.912 28.2241 174.913 28.2181C174.914 28.2052 174.913 28.1913 174.913 28.1783C174.913 28.1719 174.919 28.25 174.902 28.2475C174.886 28.2451 174.886 28.1737 174.886 28.1597C174.886 28.1266 174.886 28.1547 174.882 28.1748C174.872 28.2228 174.851 28.2676 174.84 28.3156C174.83 28.3593 174.828 28.4026 174.828 28.4472C174.828 28.496 174.828 28.5448 174.828 28.5936" stroke="#FFCAC1" stroke-width="0.1" stroke-linecap="round"/>
<path d="M174.823 28.2544C174.83 28.2927 174.856 28.328 174.87 28.364C174.895 28.4305 174.907 28.4991 174.908 28.5702C174.908 28.5848 174.92 28.7325 174.887 28.7104" stroke="#FFCAC1" stroke-width="0.1" stroke-linecap="round"/>
<path d="M174.887 28.387C174.893 28.4612 174.916 28.5325 174.918 28.6073C174.92 28.6799 174.918 28.7527 174.918 28.8253C174.918 28.8648 174.918 28.9042 174.918 28.9437" stroke="#FFCAC1" stroke-width="0.1" stroke-linecap="round"/>
<path d="M174.918 28.0105V29.0391" stroke="#FFCAC1" stroke-width="0.1" stroke-linecap="round"/>
<path d="M174.945 28.0476V29.4262" stroke="#FFCAC1" stroke-width="0.1" stroke-linecap="round"/>
<path d="M166.212 29.0094V29.6505" stroke="#FFCAC1" stroke-width="0.1" stroke-linecap="round"/>
<path d="M166.129 29.0094V29.7746" stroke="#FFCAC1" stroke-width="0.1" stroke-linecap="round"/>
<path d="M166.286 29.8502C166.284 29.848 166.282 29.8459 166.28 29.8441C166.261 29.829 166.248 29.8066 166.227 29.7924C166.211 29.7815 166.203 29.7639 166.188 29.7514C166.181 29.745 166.157 29.7237 166.177 29.7448C166.2 29.7697 166.25 29.8187 166.286 29.8502C166.318 29.8778 166.34 29.8921 166.326 29.8657C166.3 29.8173 166.257 29.7785 166.231 29.7298C166.224 29.716 166.18 29.6114 166.224 29.6503C166.261 29.6833 166.288 29.7236 166.317 29.7629C166.319 29.7646 166.32 29.7659 166.321 29.7668C166.322 29.7731 166.324 29.7795 166.326 29.7858C166.326 29.786 166.327 29.7738 166.328 29.7587C166.33 29.7642 166.332 29.7697 166.334 29.7752C166.336 29.7826 166.334 29.7595 166.333 29.7517C166.332 29.745 166.331 29.7364 166.33 29.7267C166.33 29.725 166.33 29.7234 166.33 29.7219C166.33 29.7222 166.33 29.7225 166.33 29.7228C166.335 29.7459 166.338 29.7784 166.35 29.7947C166.368 29.8195 166.349 29.7698 166.33 29.7228C166.33 29.7222 166.33 29.7216 166.33 29.7211C166.329 29.7177 166.329 29.7146 166.328 29.7117C166.328 29.7103 166.327 29.7088 166.327 29.7073C166.319 29.6555 166.308 29.5923 166.311 29.6244C166.313 29.6523 166.32 29.6802 166.327 29.7073C166.328 29.711 166.328 29.7147 166.329 29.7183C166.321 29.6986 166.313 29.6798 166.308 29.6678C166.296 29.6386 166.285 29.6072 166.269 29.5799C166.25 29.5483 166.258 29.5843 166.262 29.5977C166.28 29.6547 166.305 29.7095 166.321 29.7668C166.32 29.7659 166.319 29.7646 166.317 29.7629C166.288 29.7236 166.261 29.6833 166.224 29.6503C166.18 29.6114 166.224 29.716 166.231 29.7298C166.257 29.7785 166.3 29.8173 166.326 29.8657C166.34 29.8921 166.318 29.8778 166.286 29.8502Z" fill="#FFCAC1"/>
<path d="M166.548 30.0435C166.506 30.0435 166.469 30.0346 166.444 29.9995C166.436 29.9875 166.429 29.9769 166.424 29.9631C166.42 29.9541 166.418 29.9322 166.412 29.9257C166.397 29.909 166.367 29.9107 166.349 29.899C166.34 29.8934 166.33 29.8908 166.323 29.8829C166.317 29.8764 166.31 29.8743 166.303 29.8697C166.292 29.8634 166.289 29.8515 166.28 29.8441C166.261 29.829 166.248 29.8066 166.227 29.7924C166.211 29.7815 166.203 29.7639 166.188 29.7514C166.181 29.745 166.157 29.7237 166.177 29.7448C166.22 29.7915 166.356 29.9223 166.326 29.8657C166.3 29.8173 166.257 29.7785 166.231 29.7298C166.224 29.716 166.18 29.6114 166.224 29.6503C166.261 29.6833 166.288 29.7236 166.317 29.7629C166.34 29.7927 166.308 29.6881 166.296 29.6528C166.269 29.5772 166.297 29.6712 166.305 29.6948C166.314 29.7218 166.324 29.7483 166.334 29.7752C166.336 29.7826 166.334 29.7595 166.333 29.7517C166.328 29.7089 166.307 29.5815 166.311 29.6244C166.313 29.6538 166.321 29.6832 166.328 29.7117C166.334 29.734 166.336 29.7756 166.35 29.7947C166.376 29.8308 166.325 29.709 166.308 29.6678C166.296 29.6386 166.285 29.6072 166.269 29.5799C166.25 29.5483 166.258 29.5843 166.262 29.5977C166.282 29.661 166.31 29.7215 166.326 29.7858C166.326 29.7862 166.331 29.7203 166.331 29.7051C166.331 29.6787 166.329 29.6527 166.327 29.6264C166.324 29.5995 166.336 29.6392 166.336 29.6413C166.364 29.7135 166.382 29.788 166.405 29.8614C166.414 29.8875 166.401 29.8105 166.4 29.8051C166.395 29.7776 166.388 29.7507 166.381 29.7238C166.374 29.6979 166.394 29.7617 166.394 29.7626C166.405 29.7936 166.418 29.8238 166.432 29.8539C166.436 29.8641 166.452 29.8924 166.444 29.8852C166.435 29.8778 166.424 29.8661 166.413 29.8625" stroke="#FFCAC1" stroke-width="0.1" stroke-linecap="round"/>
<path d="M166.527 30.002C166.508 30.0005 166.39 29.899 166.368 29.9205C166.362 29.9264 166.399 29.9463 166.406 29.9529C166.413 29.9601 166.433 29.9885 166.424 29.971" stroke="#FFCAC1" stroke-width="0.1" stroke-linecap="round"/>
<path d="M166.094 29.3417C166.095 29.3707 166.094 29.4039 166.094 29.3863V29.3417Z" fill="#FFCAC1"/>
<path d="M166.078 29.0195C166.078 29.1178 166.079 29.2154 166.092 29.3129C166.095 29.3372 166.094 29.4107 166.094 29.3863C166.094 29.3669 166.094 29.3475 166.094 29.3281" stroke="#FFCAC1" stroke-width="0.1" stroke-linecap="round"/>
<path d="M165.891 29.3089C165.9 29.3178 165.909 29.3267 165.918 29.3355C165.921 29.339 165.966 29.3799 165.995 29.3991C165.995 29.3992 165.995 29.3992 165.995 29.3993C166.005 29.4219 166.011 29.4485 166.027 29.4679C166.076 29.5272 166.127 29.5885 166.181 29.6428C166.186 29.6474 166.191 29.6526 166.194 29.6584C166.198 29.6662 166.182 29.6454 166.176 29.6389C166.132 29.5892 166.078 29.5488 166.03 29.5039C166.026 29.5007 165.867 29.3308 165.847 29.3616C165.841 29.3716 165.853 29.393 165.857 29.4013C165.848 29.3904 165.832 29.3632 165.836 29.3741C165.84 29.3877 165.853 29.4029 165.864 29.4162C165.878 29.4441 165.894 29.4712 165.91 29.4978C165.925 29.5225 165.942 29.5453 165.959 29.5679C165.95 29.5621 165.94 29.5563 165.931 29.5504C165.912 29.5382 165.864 29.4938 165.874 29.5143C165.88 29.5289 165.903 29.5454 165.914 29.5551C165.939 29.5777 165.966 29.5978 165.995 29.6154C165.996 29.6167 165.997 29.6181 165.998 29.6194C166.009 29.633 166.01 29.6308 166.009 29.6234C166.01 29.6244 166.012 29.6253 166.014 29.6263C166.052 29.6476 166.091 29.6711 166.13 29.6909C166.14 29.696 166.15 29.7008 166.161 29.7053C166.171 29.71 166.184 29.7144 166.194 29.7205C166.261 29.761 166.091 29.6035 166.035 29.5495C166.019 29.5346 166.004 29.5198 165.988 29.505L165.984 29.5017C165.98 29.4972 165.967 29.4823 165.97 29.4885C165.984 29.5252 166.003 29.559 166.026 29.5898C166.004 29.5706 165.983 29.5503 165.963 29.5293C165.932 29.4842 165.892 29.4432 165.858 29.403C165.858 29.4025 165.857 29.4019 165.857 29.4013C165.853 29.393 165.841 29.3716 165.847 29.3616C165.867 29.3308 166.026 29.5007 166.03 29.5039C166.078 29.5488 166.132 29.5892 166.176 29.6389C166.182 29.6454 166.198 29.6662 166.194 29.6584C166.191 29.6526 166.186 29.6474 166.181 29.6428C166.127 29.5885 166.076 29.5272 166.027 29.4679C166.011 29.4485 166.005 29.4219 165.995 29.3993C165.995 29.3992 165.995 29.3992 165.995 29.3991C166.008 29.4075 166.017 29.4118 166.018 29.4069C166.019 29.4015 166.019 29.3952 166.019 29.3886C166.036 29.406 166.061 29.4294 166.082 29.4288C166.101 29.4283 166.073 29.3705 166.072 29.3678C166.057 29.3334 166.039 29.2997 166.02 29.2667C166.021 29.2681 166.023 29.2695 166.024 29.2708C166.055 29.3036 166.091 29.335 166.132 29.3542C166.148 29.3615 166.149 29.3567 166.143 29.342C166.133 29.3166 166.122 29.2916 166.109 29.2668C166.123 29.2873 166.137 29.3076 166.151 29.3275C166.175 29.3608 166.146 29.3146 166.145 29.3129C166.132 29.2927 166.117 29.2728 166.103 29.253C166.075 29.197 166.043 29.1421 166.016 29.0864C165.996 29.047 165.976 29.0078 165.957 28.9683C165.933 28.92 165.952 28.9694 165.96 28.987C165.995 29.0721 166.038 29.1544 166.087 29.2327C166.075 29.2162 166.063 29.1998 166.05 29.1834C166 29.1176 165.938 29.0255 165.859 28.9913C165.848 28.9866 165.839 28.9843 165.831 28.984C165.829 28.9825 165.828 28.9808 165.826 28.9791C165.823 28.975 165.82 28.9709 165.817 28.9668C165.814 28.9626 165.79 28.9237 165.808 28.9583C165.809 28.9614 165.811 28.9645 165.813 28.9676C165.798 28.9555 165.781 28.9467 165.781 28.9666C165.781 28.9744 165.782 28.9822 165.782 28.9899C165.782 28.9899 165.782 28.99 165.782 28.99C165.776 28.9914 165.781 29.0016 165.783 29.007C165.784 29.0104 165.785 29.0148 165.787 29.0196C165.787 29.0208 165.787 29.022 165.788 29.0232C165.787 29.0238 165.787 29.0245 165.787 29.0252C165.786 29.0288 165.78 29.0374 165.776 29.0457C165.771 29.0332 165.765 29.0209 165.759 29.0087C165.758 29.0082 165.734 28.964 165.732 28.9679C165.727 28.9783 165.737 29.0069 165.739 29.0152C165.751 29.0679 165.763 29.1203 165.782 29.1708C165.786 29.1793 165.789 29.1883 165.793 29.1974C165.816 29.2558 165.848 29.324 165.892 29.365C165.895 29.3676 165.901 29.3726 165.903 29.3646C165.904 29.3551 165.899 29.3349 165.897 29.3277C165.895 29.3214 165.893 29.3151 165.891 29.3089Z" fill="#FFCAC1"/>
<path d="M165.66 28.9649C165.666 29.0119 165.698 29.0597 165.722 29.0985C165.777 29.1851 165.845 29.2635 165.918 29.3355C165.923 29.3406 166.014 29.423 166.018 29.4069C166.022 29.3918 166.015 29.3691 166.011 29.355C165.998 29.3086 165.976 29.265 165.953 29.2227C165.914 29.1492 165.869 29.0719 165.812 29.0106C165.808 29.0064 165.791 28.9878 165.782 28.99C165.776 28.9914 165.781 29.0016 165.783 29.007C165.788 29.0228 165.801 29.0576 165.807 29.0703C165.856 29.1827 165.918 29.2906 166.007 29.3763C166.022 29.3916 166.056 29.4295 166.082 29.4288C166.101 29.4283 166.073 29.3705 166.072 29.3678C166.025 29.2602 165.954 29.1604 165.886 29.0647C165.863 29.032 165.84 28.9998 165.817 28.9668C165.814 28.9626 165.79 28.9237 165.808 28.9583C165.866 29.0693 165.938 29.1796 166.024 29.2708C166.055 29.3036 166.091 29.335 166.132 29.3542C166.148 29.3615 166.149 29.3567 166.143 29.342C166.108 29.254 166.058 29.1712 166.016 29.0864C165.996 29.047 165.976 29.0078 165.957 28.9683C165.933 28.92 165.952 28.9694 165.96 28.987C166.009 29.1073 166.076 29.2218 166.151 29.3275C166.175 29.3608 166.146 29.3146 166.145 29.3129C166.115 29.2687 166.082 29.226 166.05 29.1834C166 29.1176 165.938 29.0255 165.859 28.9913C165.818 28.9737 165.8 28.9888 165.787 29.0252C165.784 29.0331 165.762 29.0637 165.773 29.0655C165.797 29.0696 165.821 29.0716 165.844 29.0764C165.85 29.0776 165.907 29.0946 165.909 29.0872C165.916 29.0595 165.853 29.0054 165.836 28.9894C165.829 28.982 165.781 28.9328 165.781 28.9666C165.782 29.0327 165.807 29.0949 165.84 29.1511C165.842 29.1541 165.848 29.1628 165.846 29.1597C165.836 29.1401 165.822 29.1216 165.81 29.1031C165.796 29.0823 165.782 29.0618 165.767 29.0417C165.766 29.0402 165.741 29.0084 165.741 29.0109C165.747 29.0574 165.776 29.1059 165.801 29.1443C165.805 29.1499 165.817 29.1656 165.815 29.1591C165.809 29.1325 165.798 29.106 165.789 29.0803C165.78 29.0556 165.771 29.032 165.759 29.0087C165.758 29.0082 165.734 28.964 165.732 28.9679C165.727 28.9783 165.737 29.0069 165.739 29.0152C165.751 29.0679 165.763 29.1203 165.782 29.1708C165.806 29.2337 165.841 29.3175 165.892 29.365C165.895 29.3676 165.901 29.3726 165.903 29.3646C165.904 29.3551 165.899 29.3349 165.897 29.3277C165.884 29.2826 165.864 29.2393 165.848 29.1953C165.828 29.1429 165.805 29.0888 165.79 29.0352C165.788 29.0271 165.798 29.0498 165.802 29.0573C165.824 29.101 165.845 29.1451 165.87 29.1875C165.911 29.2584 165.963 29.3238 165.995 29.3993C166.005 29.4219 166.011 29.4485 166.027 29.4679C166.076 29.5272 166.127 29.5885 166.181 29.6428C166.186 29.6474 166.191 29.6526 166.194 29.6584C166.198 29.6662 166.182 29.6454 166.176 29.6389C166.132 29.5892 166.078 29.5488 166.03 29.5039C166.026 29.5007 165.867 29.3308 165.847 29.3616C165.841 29.3719 165.853 29.3941 165.857 29.4019C165.873 29.4349 165.891 29.4667 165.91 29.4978C165.937 29.5412 165.968 29.5791 165.998 29.6194C166.018 29.6455 166.006 29.6134 166 29.5981C165.971 29.524 165.909 29.4626 165.858 29.403C165.85 29.3937 165.832 29.3626 165.836 29.3741C165.842 29.3937 165.865 29.4169 165.878 29.4323C165.929 29.4975 165.989 29.5605 166.054 29.6135C166.061 29.62 166.124 29.6568 166.121 29.6719C166.12 29.678 166.11 29.6659 166.105 29.6621C166.078 29.6411 166.05 29.6225 166.02 29.6048C165.99 29.587 165.96 29.5691 165.931 29.5504C165.912 29.5382 165.864 29.4938 165.874 29.5143C165.88 29.5289 165.903 29.5454 165.914 29.5551C165.944 29.5824 165.978 29.6062 166.014 29.6263C166.061 29.653 166.111 29.6833 166.161 29.7053C166.171 29.71 166.184 29.7144 166.194 29.7205C166.261 29.761 166.091 29.6035 166.035 29.5495C166.018 29.5335 166.001 29.5176 165.984 29.5017C165.98 29.4972 165.967 29.4823 165.97 29.4885C165.991 29.5436 166.023 29.5923 166.064 29.6339C166.103 29.6722 166.149 29.7018 166.186 29.7413C166.204 29.7604 166.214 29.7841 166.231 29.803C166.254 29.8274 166.283 29.8641 166.312 29.8789" stroke="#FFCAC1" stroke-width="0.1" stroke-linecap="round"/>
<path d="M165.471 29.0084C165.464 29.005 165.458 29.0016 165.451 28.9983C165.42 28.9839 165.389 28.97 165.36 28.9529C165.344 28.9438 165.329 28.9339 165.315 28.9228C165.313 28.9208 165.301 28.908 165.296 28.908C165.294 28.908 165.299 28.9134 165.3 28.9158C165.309 28.9296 165.318 28.943 165.329 28.9558C165.337 28.9658 165.345 28.9758 165.353 28.9857C165.349 28.9932 165.374 29.0388 165.375 29.0408C165.386 29.0588 165.399 29.0753 165.412 29.0911C165.411 29.0901 165.409 29.0891 165.408 29.0881C165.372 29.0661 165.337 29.0417 165.298 29.0259C165.282 29.0194 165.304 29.0516 165.305 29.0526C165.341 29.1036 165.396 29.1364 165.45 29.1658C165.478 29.1814 165.507 29.1967 165.536 29.2119C165.538 29.2141 165.539 29.2162 165.541 29.2184C165.625 29.315 165.724 29.4001 165.83 29.4723C165.831 29.4729 165.832 29.4735 165.833 29.4741C165.853 29.4875 165.876 29.5017 165.897 29.5135C165.901 29.516 165.928 29.5345 165.937 29.5332C165.946 29.5318 165.927 29.5176 165.921 29.5105C165.901 29.4857 165.88 29.4617 165.86 29.4375C165.827 29.3994 165.793 29.3618 165.759 29.3254C165.759 29.3253 165.759 29.3252 165.759 29.3251C165.77 29.3334 165.782 29.341 165.795 29.3477C165.869 29.3883 165.78 29.2756 165.77 29.2639C165.743 29.2324 165.696 29.1843 165.647 29.1365C165.674 29.1569 165.713 29.1846 165.67 29.1394C165.656 29.125 165.642 29.1107 165.628 29.0965C165.606 29.0743 165.583 29.0524 165.56 29.0313C165.559 29.0296 165.534 29.004 165.528 29.0052C165.526 29.0055 165.528 29.0082 165.528 29.0096C165.531 29.0174 165.538 29.0291 165.543 29.0371C165.486 28.9842 165.452 28.9557 165.492 28.9959C165.513 29.0167 165.534 29.0374 165.556 29.0577C165.562 29.0663 165.568 29.0749 165.574 29.0835C165.549 29.0594 165.525 29.036 165.5 29.0131C165.5 29.0128 165.45 28.9678 165.457 28.9835C165.462 28.9919 165.466 29.0002 165.471 29.0084Z" fill="#FFCAC1"/>
<path d="M166.438 29.9571C166.364 29.8864 166.283 29.8245 166.198 29.7694C166.16 29.7451 166.123 29.718 166.086 29.6923C166.048 29.6659 166.009 29.6395 165.973 29.6114C165.894 29.5501 165.828 29.476 165.773 29.3924C165.71 29.2952 165.643 29.2001 165.58 29.1022C165.548 29.0517 165.504 29.0233 165.451 28.9983C165.42 28.9839 165.389 28.97 165.36 28.9529C165.344 28.9438 165.329 28.9339 165.315 28.9228C165.313 28.9208 165.301 28.908 165.296 28.908C165.294 28.908 165.299 28.9134 165.3 28.9158C165.309 28.9296 165.318 28.943 165.329 28.9558C165.376 29.0151 165.427 29.0723 165.481 29.125C165.558 29.1992 165.638 29.2708 165.717 29.3423C165.728 29.3516 165.737 29.3588 165.725 29.3399C165.691 29.2842 165.649 29.2321 165.607 29.1819C165.562 29.1284 165.514 29.0815 165.456 29.0432C165.437 29.0306 165.405 29.0008 165.422 29.0426C165.449 29.1079 165.495 29.1657 165.541 29.2184C165.625 29.315 165.724 29.4001 165.83 29.4723C165.851 29.4862 165.875 29.5011 165.897 29.5135C165.901 29.516 165.928 29.5345 165.937 29.5332C165.946 29.5318 165.927 29.5176 165.921 29.5105C165.901 29.4857 165.88 29.4617 165.86 29.4375C165.803 29.372 165.745 29.3081 165.682 29.2492C165.614 29.1862 165.54 29.1318 165.467 29.0756C165.431 29.0477 165.398 29.015 165.361 28.9879C165.336 28.9692 165.374 29.0383 165.375 29.0408C165.406 29.0909 165.449 29.1304 165.491 29.1704C165.548 29.2253 165.608 29.2748 165.676 29.3169C165.678 29.3183 165.753 29.3628 165.754 29.3546C165.755 29.3401 165.726 29.3164 165.718 29.3095C165.69 29.2832 165.66 29.2588 165.63 29.2357C165.559 29.1821 165.483 29.1352 165.408 29.0881C165.372 29.0661 165.337 29.0417 165.298 29.0259C165.282 29.0194 165.304 29.0516 165.305 29.0526C165.341 29.1036 165.396 29.1364 165.45 29.1658C165.522 29.2056 165.596 29.2432 165.669 29.2832C165.694 29.297 165.719 29.3113 165.745 29.3225C165.752 29.3258 165.763 29.3315 165.757 29.3186C165.699 29.1995 165.595 29.1031 165.5 29.0131C165.5 29.0128 165.45 28.9678 165.457 28.9835C165.492 29.0528 165.552 29.1156 165.603 29.1723C165.659 29.2342 165.72 29.3071 165.795 29.3477C165.869 29.3883 165.78 29.2756 165.77 29.2639C165.687 29.1655 165.401 28.905 165.492 28.9959C165.537 29.0402 165.583 29.0841 165.631 29.1237C165.649 29.1386 165.723 29.1959 165.67 29.1394C165.635 29.1022 165.598 29.0658 165.56 29.0313C165.559 29.0296 165.534 29.004 165.528 29.0052C165.526 29.0055 165.528 29.0082 165.528 29.0096C165.531 29.0194 165.541 29.0353 165.546 29.0424C165.571 29.082 165.601 29.1246 165.637 29.1559C165.646 29.1636 165.647 29.1573 165.645 29.1485C165.639 29.1233 165.629 29.0987 165.619 29.0751C165.598 29.0252 165.572 28.9776 165.554 28.9263C165.553 28.9227 165.539 28.8902 165.546 28.8833C165.553 28.8746 165.567 28.8941 165.575 28.9019C165.628 28.9488 165.675 29.0013 165.724 29.0517C165.776 29.1044 165.822 29.1542 165.863 29.2149" stroke="#FFCAC1" stroke-width="0.1" stroke-linecap="round"/>
<path d="M165.215 28.9844C165.247 28.9974 165.278 29.0261 165.306 29.0456C165.338 29.067 165.381 29.0911 165.405 29.1211C165.409 29.1261 165.416 29.1273 165.421 29.1306C165.435 29.1392 165.445 29.1524 165.457 29.1632C165.49 29.1944 165.517 29.231 165.549 29.2632C165.572 29.2859 165.599 29.3047 165.621 29.3283C165.638 29.3471 165.653 29.3666 165.672 29.3837C165.692 29.4014 165.707 29.4246 165.727 29.4427C165.756 29.4696 165.788 29.4927 165.822 29.5135C165.863 29.5383 165.904 29.5687 165.942 29.5977C165.991 29.6356 166.046 29.6677 166.095 29.7062C166.146 29.746 166.198 29.7893 166.244 29.8357C166.265 29.8573 166.285 29.8961 166.316 29.9023" stroke="#FFCAC1" stroke-width="0.1" stroke-linecap="round"/>
<path d="M165.278 29.0117C165.402 29.0605 165.501 29.1515 165.614 29.2229C165.691 29.2723 165.766 29.3306 165.832 29.3947C165.868 29.4296 165.907 29.4609 165.943 29.4959C165.973 29.5249 166.002 29.5553 166.036 29.5801C166.085 29.6169 166.136 29.6512 166.186 29.6875C166.234 29.7224 166.272 29.765 166.316 29.8047C166.352 29.838 166.375 29.8852 166.403 29.9249C166.422 29.9507 166.443 29.9788 166.456 30.0078C166.469 30.0358 166.446 30.0243 166.431 30.0119C166.418 30.0021 166.404 29.9991 166.392 29.9885C166.386 29.9825 166.377 29.9765 166.369 29.9709C166.362 29.9651 166.36 29.9541 166.352 29.9497C166.341 29.9433 166.335 29.9336 166.326 29.9256C166.308 29.9101 166.288 29.9006 166.269 29.8867C166.248 29.8713 166.228 29.8568 166.207 29.8407C166.187 29.8251 166.159 29.8063 166.144 29.7869C166.125 29.7631 166.096 29.7476 166.077 29.7244C166.04 29.6784 165.993 29.6416 165.948 29.6037C165.919 29.5801 165.883 29.5654 165.855 29.5414C165.834 29.5239 165.813 29.5053 165.789 29.4902C165.684 29.4215 165.598 29.3278 165.509 29.2391C165.488 29.2185 165.465 29.1999 165.444 29.1799C165.417 29.1548 165.387 29.1289 165.354 29.1115C165.336 29.1023 165.321 29.0891 165.304 29.0781C165.282 29.0634 165.256 29.0495 165.238 29.0295C165.198 28.9858 165.139 28.9632 165.102 28.918" stroke="#FFCAC1" stroke-width="0.1" stroke-linecap="round"/>
</svg>
