<svg width="99" height="38" viewBox="0 0 99 38" fill="none" xmlns="http://www.w3.org/2000/svg">
<path d="M93.5 35.5C89.9 32.7 89.3333 29.3333 89.5 28C88.5 27 75 25.5 79 29.5C83 33.5 98 39 93.5 35.5Z" fill="#FFCAC1" stroke="#3D5EA3"/>
<rect x="-0.5" y="0.5" width="98" height="29" rx="14.5" transform="matrix(-1 0 0 1 98 0)" fill="#FFCAC1" stroke="#3D5EA3"/>
<path d="M87.1124 29.1732C87.1462 29.3353 87.2683 29.4981 87.3534 29.6375C87.4813 29.8468 87.4456 29.7926 87.407 29.5944C87.3696 29.402 87.3219 29.2032 87.3029 29.0081C87.3015 28.9937 87.2992 28.9505 87.2999 28.9649C87.3062 29.1107 87.3378 29.2484 87.3683 29.3905C87.4201 29.6313 87.2703 29.4839 87.1332 29.4202C87.1044 29.4069 86.7448 29.277 86.8252 29.2551C86.9454 29.2223 87.0361 29.2179 87.0796 29.081C87.129 28.926 87.1074 28.7565 87.154 28.6033C87.186 28.4983 87.2969 28.7886 87.3118 28.8161C87.3218 28.8345 87.4515 29.0067 87.3951 28.8905C87.3379 28.7725 87.3609 28.9525 87.2731 29.011C87.1485 29.0941 87.113 29.1019 87.2404 29.1851C87.333 29.2457 87.4092 29.2919 87.5142 29.3339" stroke="#FFCAC1" stroke-width="3" stroke-linecap="round"/>
<path d="M84.9163 29.2268C84.9612 29.4437 85.0986 29.653 85.2437 29.8161C85.2582 29.8324 85.5079 30.105 85.5265 30.0274C85.5707 29.8425 85.5073 29.5995 85.4282 29.4351C85.3621 29.2975 85.2708 29.1714 85.1604 29.0661C85.1102 29.0183 84.9778 28.9139 84.9699 28.9828C84.9561 29.1041 85.0712 29.2849 85.1172 29.386C85.1801 29.5241 85.2525 29.6627 85.3003 29.8072C85.3716 30.023 84.9368 29.6668 84.8836 29.6345C84.6326 29.4823 84.3498 29.3523 84.0741 29.2506C83.9385 29.2006 84.1803 29.6788 84.2021 29.7283C84.2301 29.792 84.3663 30.0164 84.2363 29.8444C84.0409 29.5857 83.8563 29.3113 83.6321 29.0765C83.594 29.0366 83.2133 28.6361 83.1812 28.8325C83.1293 29.1504 83.2221 29.5166 83.2661 29.831C83.2936 30.0278 83.3374 30.0397 83.2348 29.8726C83.1026 29.6573 82.9672 29.4554 82.7914 29.2729C82.7081 29.1865 82.5575 29.029 82.6604 29.2595C82.7152 29.3822 82.9933 29.6671 82.8777 29.5988C82.7148 29.5026 82.5776 29.3742 82.4045 29.2923C82.2345 29.2119 82.1977 29.2293 82.2229 29.4232C82.2531 29.6559 82.3366 29.8941 82.4461 30.1018C82.4848 30.1751 82.4019 29.8739 82.3866 29.8429C82.2976 29.6622 82.1892 29.4756 82.0473 29.331C81.9509 29.2327 82.0466 29.4334 82.0592 29.4649C82.09 29.5418 81.9449 29.385 81.9164 29.3667C81.7929 29.2875 81.7824 29.3008 81.7824 29.4381C81.7824 29.5001 81.8215 29.7237 81.778 29.7744C81.7256 29.8355 81.5152 29.7255 81.4699 29.6941C81.4574 29.6854 81.3358 29.5324 81.3732 29.6197C81.3973 29.6757 81.5066 29.8227 81.4818 29.767C81.4565 29.7099 81.3473 29.4851 81.2988 29.4932C81.2091 29.5081 81.1622 29.4665 81.086 29.4411" stroke="#FFCAC1" stroke-linecap="round"/>
<path d="M81.2371 29.7833C81.2402 29.7802 81.2069 29.7389 81.2042 29.7356C81.1685 29.6898 81.1209 29.6468 81.0688 29.6207C81.0506 29.6116 81.0403 29.606 81.0421 29.629C81.044 29.6523 81.0428 29.7078 81.0662 29.7221C81.0856 29.734 81.0956 29.7009 81.0977 29.6883C81.1046 29.6469 81.0944 29.6065 81.0736 29.5707C81.058 29.5438 81.0271 29.4896 80.9944 29.4799C80.9849 29.4771 80.9821 29.4861 80.9743 29.4783C80.9629 29.4669 80.9552 29.4518 80.9451 29.4394C80.931 29.422 80.9149 29.4077 80.9036 29.3882C80.8953 29.3739 80.8893 29.3644 80.8765 29.3539C80.8702 29.3487 80.8471 29.3361 80.8388 29.34C80.8297 29.3443 80.9368 29.4577 80.9486 29.4697C80.9962 29.5181 81.02 29.5851 81.0435 29.6471C81.0466 29.6552 81.0599 29.6773 81.0537 29.6712C81.0435 29.661 81.0387 29.6372 81.0301 29.6246C81.0054 29.5889 80.9797 29.5555 80.9576 29.5181C80.9437 29.4947 80.9278 29.4672 80.9212 29.4405C80.9164 29.4208 80.9062 29.3891 80.8911 29.3748C80.8664 29.3513 80.8216 29.3452 80.7911 29.3308C80.7678 29.3197 80.7415 29.3164 80.7161 29.3164" stroke="#FFCAC1" stroke-linecap="round"/>
<path d="M80.4747 29.1914C80.4238 29.1488 80.3772 29.102 80.3251 29.0608C80.2995 29.0406 80.2719 29.0128 80.2412 29.0006C80.2383 28.9994 80.2433 29.1772 80.2459 29.1939C80.2475 29.2044 80.2511 29.2579 80.2663 29.2655C80.2788 29.2718 80.2706 29.2376 80.27 29.2236C80.2671 29.1625 80.2448 29.0914 80.2139 29.0385C80.2026 29.0192 80.2064 29.0382 80.2102 29.0483C80.2301 29.1005 80.2529 29.1522 80.2757 29.2032C80.2831 29.2196 80.2912 29.2469 80.3028 29.2615C80.3169 29.2792 80.2882 29.2188 80.2797 29.1979C80.2642 29.1597 80.249 29.1218 80.2297 29.0853C80.2264 29.0792 80.2108 29.0456 80.213 29.0723C80.2228 29.1935 80.2696 29.3058 80.2966 29.4232C80.315 29.5032 80.3402 29.5783 80.3649 29.6564C80.3926 29.7439 80.4177 29.8256 80.4849 29.8894C80.5097 29.9129 80.5257 29.9413 80.5395 29.9723C80.5514 29.9989 80.5619 29.9232 80.562 29.9192C80.5628 29.8858 80.5603 29.8537 80.5509 29.8215C80.5457 29.8039 80.5404 29.7913 80.5335 29.7745C80.5309 29.7683 80.5284 29.7621 80.5256 29.756C80.5229 29.75 80.5202 29.7338 80.5159 29.7388C80.5045 29.7521 80.5554 29.8341 80.562 29.8465C80.5771 29.8749 80.5955 29.9009 80.6122 29.9283C80.6398 29.9735 80.557 29.8377 80.5256 29.7951C80.5238 29.7927 80.4868 29.7413 80.5029 29.781C80.5209 29.8253 80.5554 29.8624 80.5868 29.8977C80.5955 29.9076 80.62 29.9371 80.6159 29.9246C80.6076 29.8987 80.5814 29.8695 80.5673 29.8465C80.5393 29.8007 80.5079 29.7572 80.4728 29.7166C80.4491 29.6892 80.4559 29.7089 80.4668 29.7305C80.4881 29.7726 80.514 29.8125 80.5386 29.8528C80.5566 29.8823 80.5745 29.9164 80.5993 29.9412C80.6579 29.9999 80.4948 29.8124 80.4418 29.7486C80.4401 29.7465 80.4001 29.6918 80.4175 29.7326C80.4399 29.7854 80.4682 29.838 80.5029 29.8838C80.5251 29.913 80.5517 29.9384 80.58 29.9616C80.5808 29.9622 80.6123 29.9853 80.6127 29.9824C80.6138 29.9745 80.6012 29.9499 80.5988 29.9426C80.5908 29.9178 80.5792 29.895 80.5654 29.8729C80.5606 29.8651 80.5754 29.8885 80.581 29.8958C80.6048 29.9275 80.6316 29.9566 80.6595 29.9848C80.6736 29.9991 80.7065 30.0482 80.7271 30.0503C80.7302 30.0506 80.7248 30.0444 80.7229 30.042C80.7123 30.0279 80.7001 30.0148 80.6868 30.0033C80.671 29.9895 80.6322 29.953 80.6083 29.9565C80.5952 29.9585 80.6583 30.0317 80.6599 30.0408C80.6609 30.0461 80.6515 30.0341 80.6474 30.0306C80.6388 30.0233 80.621 30.0086 80.6132 30.0014C80.5861 29.9765 80.5619 29.9475 80.5393 29.9185C80.5217 29.896 80.5545 29.9127 80.5617 29.9162C80.5962 29.9328 80.6274 29.9554 80.6618 29.9723C80.6946 29.9883 80.6763 29.9823 80.6664 29.9625" stroke="#FFCAC1" stroke-width="0.1" stroke-linecap="round"/>
<path d="M88.8227 28.1588C88.8389 28.2887 88.8626 28.4215 88.8651 28.5524C88.8659 28.5925 88.8651 28.5765 88.8651 28.5474C88.8651 28.5031 88.8651 28.4588 88.8651 28.4145C88.8651 28.3701 88.8651 28.3256 88.8651 28.2811C88.8651 28.242 88.8555 28.302 88.8545 28.3073C88.8452 28.3588 88.8428 28.411 88.8359 28.4628C88.8321 28.4922 88.8259 28.497 88.8171 28.4667C88.8054 28.4264 88.7998 28.3846 88.7873 28.3444C88.7754 28.306 88.7608 28.2694 88.7514 28.2301C88.7422 28.1918 88.7432 28.2598 88.7432 28.2649C88.7432 28.2986 88.7457 28.3318 88.7482 28.3653C88.7515 28.411 88.7476 28.2738 88.7487 28.2281C88.7489 28.2238 88.7482 28.1585 88.7614 28.1624C88.7873 28.1699 88.8032 28.2249 88.8233 28.2431C88.837 28.2555 88.8331 28.2317 88.8339 28.2242C88.8362 28.2017 88.8433 28.1785 88.8504 28.1571C88.8512 28.1546 88.8594 28.1278 88.8633 28.1317C88.8785 28.147 88.8834 28.1725 88.8928 28.1913C88.8943 28.1943 88.9117 28.2241 88.9125 28.2181C88.9142 28.2052 88.9128 28.1913 88.9128 28.1783C88.9128 28.1719 88.9194 28.25 88.9022 28.2475C88.8856 28.2451 88.8863 28.1737 88.8863 28.1597C88.8863 28.1266 88.8864 28.1547 88.8822 28.1748C88.872 28.2228 88.8507 28.2676 88.8398 28.3156C88.8298 28.3593 88.828 28.4026 88.828 28.4472C88.828 28.496 88.828 28.5448 88.828 28.5936" stroke="#FFCAC1" stroke-width="0.1" stroke-linecap="round"/>
<path d="M88.8232 28.2543C88.8295 28.2926 88.8559 28.328 88.8697 28.3639C88.8952 28.4304 88.907 28.4991 88.908 28.5701C88.9082 28.5848 88.9199 28.7324 88.8868 28.7103" stroke="#FFCAC1" stroke-width="0.1" stroke-linecap="round"/>
<path d="M88.8866 28.3869C88.8925 28.4611 88.9165 28.5325 88.9181 28.6072C88.9198 28.6798 88.9184 28.7526 88.9184 28.8252C88.9184 28.8647 88.9184 28.9042 88.9184 28.9436" stroke="#FFCAC1" stroke-width="0.1" stroke-linecap="round"/>
<path d="M88.9185 28.0104V29.0391" stroke="#FFCAC1" stroke-width="0.1" stroke-linecap="round"/>
<path d="M88.9448 28.0475V29.4261" stroke="#FFCAC1" stroke-width="0.1" stroke-linecap="round"/>
<path d="M80.2119 29.0094V29.6505" stroke="#FFCAC1" stroke-width="0.1" stroke-linecap="round"/>
<path d="M80.1289 29.0094V29.7746" stroke="#FFCAC1" stroke-width="0.1" stroke-linecap="round"/>
<path d="M80.5479 30.0435C80.5057 30.0435 80.4685 30.0346 80.4442 29.9995C80.4358 29.9875 80.4288 29.9769 80.4238 29.9631C80.4205 29.9541 80.4181 29.9322 80.4123 29.9257C80.3972 29.909 80.3673 29.9107 80.3488 29.899C80.3399 29.8934 80.3299 29.8908 80.3226 29.8829C80.3166 29.8764 80.3099 29.8743 80.3025 29.8697C80.2923 29.8634 80.2893 29.8515 80.2801 29.8441C80.2613 29.829 80.2476 29.8066 80.227 29.7924C80.2111 29.7815 80.2026 29.7639 80.1882 29.7514C80.1809 29.745 80.1571 29.7237 80.1767 29.7448C80.2204 29.7915 80.3557 29.9223 80.3258 29.8657C80.3002 29.8173 80.2573 29.7785 80.2313 29.7298C80.2239 29.716 80.1803 29.6114 80.2238 29.6503C80.2609 29.6833 80.2877 29.7236 80.3172 29.7629C80.3396 29.7927 80.3079 29.6881 80.2956 29.6528C80.2694 29.5772 80.2971 29.6712 80.3048 29.6948C80.3138 29.7218 80.3241 29.7483 80.3336 29.7752C80.3362 29.7826 80.3338 29.7595 80.333 29.7517C80.3283 29.7089 80.3073 29.5815 80.3109 29.6244C80.3133 29.6538 80.321 29.6832 80.3281 29.7117C80.3337 29.734 80.3363 29.7756 80.3502 29.7947C80.3765 29.8308 80.3248 29.709 80.3077 29.6678C80.2956 29.6386 80.2847 29.6072 80.2686 29.5799C80.2501 29.5483 80.2583 29.5843 80.2623 29.5977C80.2816 29.661 80.3104 29.7215 80.3255 29.7858C80.3256 29.7862 80.3308 29.7203 80.3307 29.7051C80.3305 29.6787 80.3288 29.6527 80.3267 29.6264C80.3244 29.5995 80.3356 29.6392 80.3364 29.6413C80.3639 29.7135 80.382 29.788 80.4054 29.8614C80.4137 29.8875 80.4008 29.8105 80.3999 29.8051C80.3952 29.7776 80.3879 29.7507 80.3807 29.7238C80.3737 29.6979 80.3936 29.7617 80.3939 29.7626C80.4054 29.7936 80.4183 29.8238 80.4318 29.8539C80.4364 29.8641 80.4521 29.8924 80.4436 29.8852C80.4346 29.8778 80.424 29.8661 80.4134 29.8625" stroke="#FFCAC1" stroke-width="0.1" stroke-linecap="round"/>
<path d="M80.5273 30.0021C80.5084 30.0005 80.3897 29.8991 80.3682 29.9205C80.3622 29.9265 80.3992 29.9463 80.4058 29.953C80.4131 29.9602 80.4327 29.9885 80.4239 29.9711" stroke="#FFCAC1" stroke-width="0.1" stroke-linecap="round"/>
<path d="M80.0783 29.0195C80.0783 29.1178 80.0792 29.2154 80.0922 29.3129C80.0954 29.3372 80.0939 29.4107 80.0939 29.3863C80.0939 29.3669 80.0939 29.3475 80.0939 29.3281" stroke="#FFCAC1" stroke-width="0.1" stroke-linecap="round"/>
<path d="M79.6602 28.9649C79.6658 29.0119 79.6978 29.0597 79.7222 29.0985C79.7767 29.1851 79.8452 29.2635 79.9175 29.3355C79.9226 29.3406 80.0145 29.423 80.0182 29.4069C80.0218 29.3918 80.0152 29.3691 80.0113 29.355C79.9985 29.3086 79.9756 29.265 79.9531 29.2227C79.9142 29.1492 79.8686 29.0719 79.8116 29.0106C79.8077 29.0064 79.7909 28.9878 79.7817 28.99C79.7762 28.9914 79.7809 29.0016 79.7826 29.007C79.7875 29.0228 79.8013 29.0576 79.8069 29.0703C79.8555 29.1827 79.9181 29.2906 80.0065 29.3763C80.0223 29.3916 80.0555 29.4295 80.0816 29.4288C80.1011 29.4283 80.0728 29.3705 80.0716 29.3678C80.0246 29.2602 79.9535 29.1604 79.8863 29.0647C79.8633 29.032 79.8398 28.9998 79.8173 28.9668C79.8144 28.9626 79.7896 28.9237 79.8077 28.9583C79.8659 29.0693 79.9377 29.1796 80.0239 29.2708C80.0548 29.3036 80.0907 29.335 80.1319 29.3542C80.1477 29.3615 80.1491 29.3567 80.1432 29.342C80.108 29.254 80.0578 29.1712 80.0158 29.0864C79.9963 29.047 79.9764 29.0078 79.957 28.9683C79.9333 28.92 79.9524 28.9694 79.9596 28.987C80.0091 29.1073 80.0756 29.2218 80.1513 29.3275C80.1751 29.3608 80.1465 29.3146 80.1454 29.3129C80.1153 29.2687 80.0825 29.226 80.0501 29.1834C80.0002 29.1176 79.9379 29.0255 79.8589 28.9913C79.8183 28.9737 79.8005 28.9888 79.7869 29.0252C79.784 29.0331 79.7619 29.0637 79.773 29.0655C79.7967 29.0696 79.8205 29.0716 79.8442 29.0764C79.8503 29.0776 79.9074 29.0946 79.9093 29.0872C79.9162 29.0595 79.8529 29.0054 79.8364 28.9894C79.8288 28.982 79.781 28.9328 79.7812 28.9666C79.7818 29.0327 79.8074 29.0949 79.8403 29.1511C79.842 29.1541 79.8478 29.1628 79.8461 29.1597C79.8358 29.1401 79.8224 29.1216 79.8101 29.1031C79.7963 29.0823 79.7821 29.0618 79.7674 29.0417C79.7663 29.0402 79.7406 29.0084 79.7409 29.0109C79.7469 29.0574 79.7764 29.1059 79.8014 29.1443C79.8051 29.1499 79.8166 29.1656 79.8151 29.1591C79.809 29.1325 79.7978 29.106 79.7888 29.0803C79.7803 29.0556 79.7705 29.032 79.7587 29.0087C79.7584 29.0082 79.734 28.964 79.7322 28.9679C79.7273 28.9783 79.7373 29.0069 79.7391 29.0152C79.7509 29.0679 79.7629 29.1203 79.7823 29.1708C79.8065 29.2337 79.8413 29.3175 79.8919 29.365C79.8947 29.3676 79.9014 29.3726 79.9028 29.3646C79.9044 29.3551 79.8992 29.3349 79.8971 29.3277C79.884 29.2826 79.8638 29.2393 79.8477 29.1953C79.8284 29.1429 79.8055 29.0888 79.7901 29.0352C79.7878 29.0271 79.7983 29.0498 79.8021 29.0573C79.8241 29.101 79.8454 29.1451 79.8698 29.1875C79.9106 29.2584 79.9628 29.3238 79.9952 29.3993C80.0049 29.4219 80.0114 29.4485 80.0273 29.4679C80.0761 29.5272 80.1271 29.5885 80.1814 29.6428C80.186 29.6474 80.1906 29.6526 80.1936 29.6584C80.1976 29.6662 80.182 29.6454 80.1762 29.6389C80.1323 29.5892 80.0783 29.5488 80.0297 29.5039C80.0262 29.5007 79.8667 29.3308 79.8472 29.3616C79.8407 29.3719 79.8533 29.3941 79.857 29.4019C79.8726 29.4349 79.8914 29.4667 79.9104 29.4978C79.9367 29.5412 79.9679 29.5791 79.9983 29.6194C80.0179 29.6455 80.0062 29.6134 80.0002 29.5981C79.9712 29.524 79.9086 29.4626 79.8581 29.403C79.8502 29.3937 79.8316 29.3626 79.8355 29.3741C79.842 29.3937 79.8654 29.4169 79.8776 29.4323C79.9292 29.4975 79.9895 29.5605 80.0536 29.6135C80.0614 29.62 80.1243 29.6568 80.1211 29.6719C80.1198 29.678 80.11 29.6659 80.105 29.6621C80.0778 29.6411 80.0498 29.6225 80.0202 29.6048C79.9902 29.587 79.9604 29.5691 79.931 29.5504C79.912 29.5382 79.8643 29.4938 79.8737 29.5143C79.8803 29.5289 79.9026 29.5454 79.9136 29.5551C79.9444 29.5824 79.978 29.6062 80.0139 29.6263C80.0615 29.653 80.1106 29.6833 80.1606 29.7053C80.1713 29.71 80.1844 29.7144 80.1944 29.7205C80.2611 29.761 80.091 29.6035 80.0347 29.5495C80.018 29.5335 80.0012 29.5176 79.9844 29.5017C79.9796 29.4972 79.9673 29.4823 79.9696 29.4885C79.9906 29.5436 80.0228 29.5923 80.0645 29.6339C80.1027 29.6722 80.1487 29.7018 80.1858 29.7413C80.2037 29.7604 80.2136 29.7841 80.2311 29.803C80.2539 29.8274 80.2828 29.8641 80.3125 29.8789" stroke="#FFCAC1" stroke-width="0.1" stroke-linecap="round"/>
<path d="M80.4375 29.9571C80.3641 29.8864 80.2832 29.8245 80.1977 29.7694C80.1601 29.7451 80.1227 29.718 80.0859 29.6923C80.0482 29.6659 80.009 29.6395 79.9727 29.6114C79.8936 29.5501 79.8283 29.476 79.7734 29.3924C79.7097 29.2952 79.643 29.2001 79.5801 29.1022C79.5476 29.0517 79.5036 29.0233 79.4505 28.9983C79.42 28.9839 79.389 28.97 79.3598 28.9529C79.3443 28.9438 79.3293 28.9339 79.3151 28.9228C79.3127 28.9208 79.3009 28.908 79.2964 28.908C79.2936 28.908 79.2986 28.9134 79.3001 28.9158C79.3089 28.9296 79.3184 28.943 79.3286 28.9558C79.3756 29.0151 79.427 29.0723 79.4813 29.125C79.5577 29.1992 79.6382 29.2708 79.7172 29.3423C79.7276 29.3516 79.737 29.3588 79.7253 29.3399C79.6907 29.2842 79.6486 29.2321 79.6068 29.1819C79.5622 29.1284 79.5142 29.0815 79.4559 29.0432C79.4368 29.0306 79.4051 29.0008 79.4221 29.0426C79.4487 29.1079 79.4954 29.1657 79.5412 29.2184C79.6254 29.315 79.7244 29.4001 79.8303 29.4723C79.8507 29.4862 79.875 29.5011 79.8967 29.5135C79.901 29.516 79.9284 29.5345 79.9368 29.5332C79.9459 29.5318 79.9272 29.5176 79.9214 29.5105C79.9013 29.4857 79.8804 29.4617 79.8596 29.4375C79.803 29.372 79.7454 29.3081 79.6819 29.2492C79.614 29.1862 79.5405 29.1318 79.4672 29.0756C79.4309 29.0477 79.3979 29.015 79.3611 28.9879C79.3358 28.9692 79.3739 29.0383 79.3754 29.0408C79.4055 29.0909 79.449 29.1304 79.4909 29.1704C79.5484 29.2253 79.6084 29.2748 79.676 29.3169C79.6783 29.3183 79.7533 29.3628 79.7539 29.3546C79.755 29.3401 79.7257 29.3164 79.7183 29.3095C79.6904 29.2832 79.6603 29.2588 79.6298 29.2357C79.5588 29.1821 79.4829 29.1352 79.4076 29.0881C79.3722 29.0661 79.3366 29.0417 79.2977 29.0259C79.282 29.0194 79.3044 29.0516 79.3051 29.0526C79.3414 29.1036 79.3957 29.1364 79.4497 29.1658C79.5223 29.2056 79.5961 29.2432 79.6686 29.2832C79.6935 29.297 79.7185 29.3113 79.7448 29.3225C79.7525 29.3258 79.7633 29.3315 79.7569 29.3186C79.6986 29.1995 79.5951 29.1031 79.5004 29.0131C79.5002 29.0128 79.4496 28.9678 79.4575 28.9835C79.4921 29.0528 79.5517 29.1156 79.6031 29.1723C79.6591 29.2342 79.7202 29.3071 79.7947 29.3477C79.8693 29.3883 79.7798 29.2756 79.77 29.2639C79.6872 29.1655 79.4015 28.905 79.4924 28.9959C79.5367 29.0402 79.5826 29.0841 79.6311 29.1237C79.6492 29.1386 79.7232 29.1959 79.6697 29.1394C79.6345 29.1022 79.5981 29.0658 79.5603 29.0313C79.5585 29.0296 79.5343 29.004 79.5278 29.0052C79.5264 29.0055 79.5275 29.0082 79.528 29.0096C79.5314 29.0194 79.5415 29.0353 79.546 29.0424C79.5715 29.082 79.6013 29.1246 79.6372 29.1559C79.6461 29.1636 79.6466 29.1573 79.6447 29.1485C79.6395 29.1233 79.6293 29.0987 79.6194 29.0751C79.5983 29.0252 79.572 28.9776 79.5543 28.9263C79.553 28.9227 79.5393 28.8902 79.5456 28.8833C79.5534 28.8746 79.5666 28.8941 79.5753 28.9019C79.6278 28.9488 79.6754 29.0013 79.7244 29.0517C79.7757 29.1044 79.8222 29.1542 79.8633 29.2149" stroke="#FFCAC1" stroke-width="0.1" stroke-linecap="round"/>
<path d="M79.2148 28.9844C79.2468 28.9974 79.2781 29.0261 79.3064 29.0456C79.3376 29.067 79.3814 29.0911 79.4054 29.1211C79.4094 29.1261 79.4157 29.1273 79.421 29.1306C79.4345 29.1392 79.4454 29.1524 79.457 29.1632C79.4905 29.1944 79.5171 29.231 79.5493 29.2632C79.5719 29.2859 79.5989 29.3047 79.6207 29.3283C79.6378 29.3471 79.6526 29.3666 79.6719 29.3837C79.6919 29.4014 79.7067 29.4246 79.7266 29.4427C79.7561 29.4696 79.7878 29.4927 79.8218 29.5135C79.8625 29.5383 79.9036 29.5687 79.9416 29.5977C79.9914 29.6356 80.0456 29.6677 80.0951 29.7062C80.1463 29.746 80.1985 29.7893 80.2437 29.8357C80.2647 29.8573 80.2849 29.8961 80.3164 29.9023" stroke="#FFCAC1" stroke-width="0.1" stroke-linecap="round"/>
<path d="M79.2775 29.0117C79.4022 29.0605 79.5015 29.1515 79.6137 29.2229C79.6914 29.2723 79.7661 29.3306 79.8322 29.3947C79.8682 29.4296 79.9074 29.4609 79.9431 29.4959C79.9728 29.5249 80.0022 29.5553 80.0355 29.5801C80.0851 29.6169 80.1362 29.6512 80.1859 29.6875C80.2338 29.7224 80.2725 29.765 80.3157 29.8047C80.352 29.838 80.3752 29.8852 80.4034 29.9249C80.4217 29.9507 80.4433 29.9788 80.4563 30.0078C80.4689 30.0358 80.4459 30.0243 80.4305 30.0119C80.4183 30.0021 80.4038 29.9991 80.3923 29.9885C80.3858 29.9825 80.3765 29.9765 80.3693 29.9709C80.3618 29.9651 80.3596 29.9541 80.3517 29.9497C80.3406 29.9433 80.3355 29.9336 80.3261 29.9256C80.3081 29.9101 80.2876 29.9006 80.2688 29.8867C80.248 29.8713 80.2278 29.8568 80.2072 29.8407C80.1871 29.8251 80.1594 29.8063 80.1438 29.7869C80.1248 29.7631 80.0961 29.7476 80.0774 29.7244C80.0404 29.6784 79.9927 29.6416 79.9477 29.6037C79.9195 29.5801 79.8835 29.5654 79.855 29.5414C79.8341 29.5239 79.8126 29.5053 79.7895 29.4902C79.6836 29.4215 79.5975 29.3278 79.5089 29.2391C79.4882 29.2185 79.465 29.1999 79.4437 29.1799C79.4171 29.1548 79.3871 29.1289 79.3539 29.1115C79.3362 29.1023 79.3207 29.0891 79.304 29.0781C79.2815 29.0634 79.2556 29.0495 79.2376 29.0295C79.1982 28.9858 79.1394 28.9632 79.1017 28.918" stroke="#FFCAC1" stroke-width="0.1" stroke-linecap="round"/>
</svg>
